/* XPM */
static char *_dfba5e420784aedd1fd710f9fc22214ZeXqYD3pddQdEUvr[] = {
/* columns rows colors chars-per-pixel */
"64 64 133 2 ",
"   c #3E451B",
".  c #3F511E",
"X  c #3B4222",
"o  c #41451E",
"O  c #424A1E",
"+  c #47521F",
"@  c #4A5B1F",
"#  c #505B1F",
"$  c #434C21",
"%  c #455322",
"&  c #4B5524",
"*  c #475923",
"=  c #4D5C25",
"-  c #4D542A",
";  c #4D5B29",
":  c #525E25",
">  c #54562A",
",  c #5D572F",
"<  c #535D2B",
"1  c #5C5C2D",
"2  c #5C5F32",
"3  c #4E6225",
"4  c #4F612B",
"5  c #536426",
"6  c #5A6525",
"7  c #556926",
"8  c #5C6D25",
"9  c #54642B",
"0  c #59652C",
"q  c #566A2A",
"w  c #5B6C2C",
"e  c #5B7125",
"r  c #5D722D",
"t  c #5F792D",
"y  c #546432",
"u  c #5C6431",
"i  c #566A31",
"p  c #5C6D32",
"a  c #5B673A",
"s  c #5E6E3A",
"d  c #5E7232",
"f  c #5F7639",
"g  c #61672D",
"h  c #626E2D",
"j  c #607426",
"k  c #62732E",
"l  c #6A772E",
"z  c #647A2D",
"x  c #69792D",
"c  c #616532",
"v  c #626D33",
"b  c #6A6B33",
"n  c #626C38",
"m  c #686A38",
"M  c #637434",
"N  c #6A7535",
"B  c #657A34",
"V  c #6A7C35",
"C  c #647439",
"Z  c #6A753A",
"A  c #667B3A",
"S  c #6B7C3B",
"D  c #727C36",
"F  c #727538",
"G  c #717D3C",
"H  c #677640",
"J  c #697740",
"K  c #677A41",
"L  c #6D7D42",
"P  c #697F48",
"I  c #727D42",
"U  c #67852D",
"Y  c #6A822E",
"T  c #678033",
"R  c #6B8234",
"E  c #6E8937",
"W  c #678039",
"Q  c #6D833B",
"!  c #6E893A",
"~  c #728336",
"^  c #748B36",
"/  c #798D37",
"(  c #72843C",
")  c #79843E",
"_  c #748B3D",
"`  c #7A8B3E",
"'  c #739031",
"]  c #7B9436",
"[  c #76903C",
"{  c #79933E",
"}  c #6D8242",
"|  c #6D8841",
" . c #6E8448",
".. c #738443",
"X. c #7A8544",
"o. c #758A43",
"O. c #7A8C43",
"+. c #738549",
"@. c #7A844B",
"#. c #768B4A",
"$. c #7C8C4B",
"%. c #779144",
"&. c #7B9244",
"*. c #779048",
"=. c #7C934A",
"-. c #7F9A4A",
";. c #758A54",
":. c #7D8D55",
">. c #7E8C58",
",. c #7D9451",
"<. c #859A3E",
"1. c #808D43",
"2. c #81854C",
"3. c #818D4B",
"4. c #839445",
"5. c #829B45",
"6. c #83944D",
"7. c #8A934E",
"8. c #849A4C",
"9. c #899B4F",
"0. c #818852",
"q. c #859252",
"w. c #889454",
"e. c #839953",
"r. c #8B9C53",
"t. c #86965B",
"y. c #8B9059",
"u. c #86995C",
"i. c #8D9E5B",
"p. c #949C5D",
"a. c #86A14C",
"s. c #8CA352",
"d. c #91A25C",
/* pixels */
"w $.G M 4.O.r k 0 V V h p O.M Q 8.Q w } C =.*.=.i p B A A +.o.9 p $.S z 4.&.r V 3 M 7 5.o.Q 4.( ( ) g #.( w V k M M B A A +.+.: ",
"=.y r %.~ d A B 0 S ~ D L S e.B o.6.  y 9 O | o. .p W i ....S y $.i r %.( h W W r R O.t R 6 V 8 M ` : S &.l h h p s W i O.| L y ",
"o.S p 6.0 r R C M D k C ..w n S X.M Q o.@.} } d } w +.L +.C :.M ..S p w.9 r R f f o._ ( k M V R _ =.S 5._ V u $.M M S p C f :.v ",
"B O.B S M B & k q ~ D Z w ..w.G M 0 B Q p d d Q =._ Q A ( d ; d d 8.B S M B 4 d 7 M r ( I N ) G ` B M / B ~ v M G w } Z 0 d ; r ",
"3 M M c R ~ 5 8 V ..@.B r ..k N V } _ M p Q d 9 #.Q Q A S S } Q w r u c R V h B C ..O.S 0 6.S o.Q 5 ' T R Q R Q o.B v S q n I Q ",
"M &.< p S w B B R 3.6 p Q y.9 S Z 6 _ w | 8.0 } ;.,.L  .C C  .t.B X.$ v V M ` M o.$.G 3.p I V ~ o.t s.Q ..p B p q w d M < 9  .u.",
"` ( o.C G X...V e w ..V ..Z b N b D w d 5 d 0 % 4 C 9 S n p v $.O.....M G ....R V G Z V +.B p _ t &.5.E Q &.B o.= =.p M p 0 < u.",
"A Q O.w M ( Q Q R M R V n 1 g N F v C M r C p M Q | d B Z | A Q o...I B M X.Q ..S ..K B M } R k z T U 7 =.z w t O.B A Q L | C A ",
"M d k p M ! Q &.5.V M M 6 O.c ..u X.~ S V h O.w A C W d p  .K s ,.} C _ w } S ..s o.A p < S r B { ! t B R R _ -.f C p C M  .L a ",
"! r   Q q =.o.%.w %.M Q S C N V F S ..o.Q ~ I N ..& d +.Q M L y | A K w d O.O.*.S s.6.Q } ..0 7 ' U T ! R E r -.p ..A S B A J y ",
"A p A S r Q 9 B p S _ &.X.S N O.D S Z D 7.M ..2.o.S S S ..p C p T ..d _ d Q 9 ! u.} } Q | 6 B M -.t O...s.k &.U d ` B A Q M A p ",
"q o.t 9 ( f W r B V R V 8.~ h ^ G o.X.~ X.O.S G O.O.d S } ..A  .H ; B q _ f W i ;.| A | E z + 3 &.d d d w q _ B S O.0 Q ....A  .",
"t &.S R d ( 3 S V ) / Y ] ~ M ~ @.g 6 D X.( ( w.` M w S X.S A M B | R Q d Q = Q W &.=.M e.7 C V 9.y 0 _ @ t R O._ M w S $.S Z d ",
"3.+.n d Q =.d p Q Q E _ _ R M 4.8.S 1.2.2.S I X.A o.~ k k n M A 3.+.n p Q =.d f f B | q &.! B v B r S 8._ k Q S A ` ~ M k M M A ",
"y.G ( p r B k } O.R ( V k Y O.~ _ ..4.G D ~ D S N n ~ 0 ..o.( I y.I ~ p l Q r #. .d 9 B t ,.B Q p ..v =.q *.p 6 h M ~ u ..o...L ",
"p...C B d _ o.! o.V 5 _ O.G N R o.S 4.M h } V X.M 0 ( @.S L X.G p.` C C w ! o.%.f e.O.&.p K < ` % k w   w L X.M N p S X.Q L X.I ",
"w.w Q N R = %.~ V N ( 5 ~ C N S D S o.V G S $.c 6.Z 4.N O.2.7.2.6.0 R V V = %.&.S &._ _ ! B 9 V ( &.B z e -.r Q Q S O.N O.2.7.1.",
"o.n A q w g V ` Q I Q ` 4.4.D v V _ B R L Z O.Q $.` Z ( N D ( C X.C C q g p ~ Z o.A _ } p 0 M ~ B Q B r Q W W i d Q G ( V G G C ",
"4.M =.5 C p _ _ w ` ~ ^ R z B R R O.M _ k V 0 g V @.+.d.o.) _ O.-.B =.9 C p %.| M S f d o.8.M h &.x S p t W W o.o.*.} d.X.) ) o.",
"R 9.%.z ! V Q r S R 8 h _ Y 7 z E B k r M M D o.S V 8.5.O.M ` w Y r.%.t ~ V ! X.S *.n p B k r k R 5 S = _ ! r B ..B =.5.&.M ` w ",
"e t 7 Q 4 Q p S { k Q @ M k 8.5 _ t o.q B A S ( @.6.b =.R ~ ~ ] e k 7 W 4 Q y =.k O.9 S r & D h R r N k B B w A d r.M =.R ~ ^ _ ",
"z = &.[ d =.O.~ l x k w R V M i S q k B C M d p M 1.X.p n R _ Q M = { [ d *.-.Q N ~ s L ~ ( S g 7 <.O.M D w V p B G X.p s R _ R ",
"%...3 X.B d &.S 6 l x ( ` / p ..w r O.1 $.s < y.~ > G $.8.B %.e %...5 O.B d =.X.p ..d r w g o.A : ` ~ Q ..x ~ M R n G =.a.B ` e ",
"&.S o.7 i } B R n ~ ~ 8 _ z Q O.A d < 6 w 6 < V Q % ..0 B ! z 9 &.S o.7 9 | T B C A A w r B ( O.9 & O.= O.Q V Q k M ( 0 B Q B 7 ",
"o.d * * p | a.7 C V N 5 : w E r a d   5 q q S Q p & ..V 5.B -.B %.r * * w | a.9 #.! f M r k 5 =.4 h O.B e z _ M 4.= I V 5.R =.B ",
"6.Q _ B _ -.d r A S h X.e.6 3 d M M & A w M O.% B : 6.V R r E S 6.Q o.B _ 8.d w d = %.f S _ O.w q M < S V _ ( B A 0 $.S R e Q ( ",
"d =.8.S B _ %./ R V ~ ~ R X.q 7 7 _ } M s w O...@.7.1.Z ` R Q 4 d =.8.S M o.%./ Q R r M O.&.5.r.Q $.3._ 9 r Q B 5 o.O.S ` S Q 4 ",
"_ R q o.w S M z r M X.h q N 5 R M ~ Q $ $ L 4 J o.V O.Q 4.p d B ! R q o.e Q M z t 9 &.M ..Q S 6 S Q R z E B $.W p B ( ~ 4.p t B ",
"$.O.S 6.V Q Q _ X.B _ V o.w ( M S o.p q & S d } n z ( B 6.V ( M =.#.V q.A Q Q _ ( B { B ( V ..0 ( 5 8 5 %.0 7 w N v Q B 6.V ( M ",
"} A ..V % p w R p ~ B V d Q Q q = p Q O.2 p ,.W B M $ n I q.X.Q } A ..V % d p R 9 S R k @.M o.9 s r ^ B Q Z o.~ M M $ n ..7...Q ",
"A S S M n S V E r M V O.M L ` < Q o._ r d & _ p i o.< ..S X.w ( S A S N v S B ! d _ M w G D M A ..d _ r 5 B S R S Q < } S X.w ~ ",
"C &.- B S B 4.o.M d M 3.9 p 5 V %.....9 u Q d } G y.( A Z - o.8 Z O.& B S B 4.o.S k 6 # = V G 6.: M t w ( m M z ` 3.o.C Z ; X.8 ",
"w $.L z 4.O.w k 0 V V h p O.M } 6.} w Q C =.*.=.y p B A A +.X.; q $.I z 4.O.t V 3 z 7 8._ S 4.( ( ` g #.Q w V k M M B B A +.o.; ",
"=.y w &.~ t A A 9 G ~ S } A r.N [ 8.  y y   | o. .d W < *...J i =.y r O.~ d A A r Q O.r V 8 V q N _ & V 4.l h M n p Q i o.+.S y ",
"..S d 6.9 d R M h V b M ..w M Z #.M ....@.Q  .p L 7 +.p S d >.v o.S p 6.7 d Q B f o._ ~ M n V ~ _ 8.B ] ^ N p $.w w I p A f >.M ",
"d e.B F M B & w 5 D V Z w ..e.G N 9 M S p d d | =.! 5 ( d d ; p M 8.B S M B % d 7 B w ..( N ) ~ O.V R V ( _ q b M 5 L Z 6 d ; p ",
"w r 0 c R ~ : 5 M ) q.N d ..k N N Q _ M p W t ; #.| Q o.; a ..| w k 0 c R _ : 5 Z ..O.S 0 w.C o.M 5 &.B G 8 U 5.Q z p S 0 n L Q ",
"A O.o p S w N p ~ 0.: w Q q.9 S Z 6 _ w o.9.9 } ;.,.L Q % > ..t.A X.o p Z w N p V ..( 3.u I R / &.( b 9.p 1 k ^ h M 8 p & ; +.u.",
"&.I I Z S 4.Q d A p o.S ..Z v N b V w d 3 d = % y A < A p 9 = t.=.I I Z S 4.S B B v X.b .._ * V ` i.m 6.Q =.Q j ~ Z 0 b p 9 ; u.",
"X.+.( B C o.L } ..w V V b 1 g F F v C B q d 4 p Q Q d B Z K C S O...I B C o.L J o.D u m I +.V _ x z N Q M O.Q v S R w M Z K C S ",
"e.} B o.0 S n C M M 0 n 9 O.c ..c O.( A Q | Q 9 d d Q d p  .P a ,.} A o.0 S n B 5 Q $.J c S R O.~ G G 6 b G C o...q ..d r  .L a ",
"| W A w B ~ p B 7 M I V B S k N F I ..o.7 n ..A $.o p #.S M K y ..W A q S R p M O S s :.w ( A o.M z V h w q R ~ | x t  .Q M H y ",
"B | s _ C C Q Q R q Q o.S L M 1.~ 0 S p $.S 9 Q 5 & o.L ..p B p W Q d _ C C Q ..B S & G l w 6 b r t E ..: : : j ^ w S Z ..p A p ",
"K X B A 6.3 M A _ R O.q B : M &.c , q ~ d ! = r 5 C o.d C +.C +.K X B A 6.5 d S / M q ` F 8 g F M M k X.5 8 8 8 ( 0 M M C +.C +.",
"&.d _ 8.4.W L k k V B =.Q o.: S $.{ 0 V O.9.= T R ..S ..C < f i &.M _ 8.=.Q S h V w M b : k h ~ N N ~ Q q V V k D L S Q C ; C y ",
"} ; d ; 4.- L 0 g S < b ..4.Z p $ Z Z w 8.A t d R Z > c S y $ p } ; d < =.- L 6 M 5 N X.w 4.k N g M ~ ( V V b w N n < c A 2 % p ",
"M 3 k z B Q M k S M 8 w R Z N Z r _ M V 0.0 o.Q &.! S 9 < < - A d 3 r z B R M M A + : V S S k G 2.2 S k M 5 &.~ ( _ S 9 9 9 - S ",
"A S e.w 0 ..t.$.0 ..v p d S T 0 ( [ B v < ( %.T 4 Q p 7 r.( ; q A S e.w q ..t.3.p  ...O.Z O.N X.0.I Q u j w q M 7 Q p 5 r.~ ; q ",
"; +.s B ~ ; A q M p o.: t M d w d _ e B d %.A A M o.=.A $.0 d q 4 +.s V ~ ; S q M p ( F g O.0 S 4.I h 6 4.7 w M B O.=.A #.i d q ",
"p p 9 B M O S C n B ~ V M _ R q 7 _ % A d 9 9 | 0 p #.4 R 4 | p w a 5 B S O S C M N G S k V I 3...0 9 L S Q w Q 0 p #.5 Q 3 ..p ",
" .} $.d & = ( w Q Q L o.M S 5 A w p p ( ; t &.; ,.e Q | _ d A L  .P $.M ; * ( w Q O.C o.C ~ w Z k q C 2 Q k z & :.e Q | o.p A } ",
"s % S :.& : +.C X.7 M q z E 7 S ( B M M z _ t r 5 V _ B 4 *.9 p p = S +.: 5 o.C ..: O.3.G 6 G Z x = u Z z z 3 k 5 V _ B 3 *.9 a ",
"Q 4 +.: _ B M Q C M 0 7 r M 6.5 _ t | 7 ^ B Y 5 k d 4 M | d r Q Q q A d d A d ( C S v S F k 2 y M k p n z T t M t f 4 C ! d q Q ",
"o.i B q M o.1.Z n d B r V V M w A q M B C M B z R _ T . . d ! M S 9 [ _ d $.=.S n d i M x 5 5 C p x 7 p o.W p | B R T % . d _ d ",
"S & B B d w n , : G l ~ O./ d o.q r O.1 +.p M 4 e A Q A d q Q q [  .3 X.B d X.Z < I B M 5 S Q ..C o.Q I $.S r 5 7 B Q A f d Q 7 ",
"W M q s B A M M V S l w _ z A ( C M : 5 v w C  .} *.P q B Q t 7 &.S o.q q } B B V M Q B M 5 M Q 4 3 ` = X.B p d d o.} q S Q t 7 ",
"V _ ; w B L _ 9 v V N 5 # w T r p C   7 0 q S S = & M M s.t &.A O.d = * i | a.5 | Q d B M M 9 O.4 h O.B e z o.M ..= I R 8.B &.B ",
"o.Q Q V _ -.t d B S M X.7.w 9 d S M & A w C O.& d 0 =.N R e Q S =.Q ( R [ 8.d p d = %.f A ` O.w q M < V V _ Q B B w $.V Y r ! ( ",
"d &.8.S B o.&./ S V ~ ~ V ..7 7 7 ~ Q M p w X.| @.6.O.S ` S W 4 M &.8.S M o.%./ Q R r M o.O.8.s.} X.3._ 9 r S A 9 ` O.Z _ S Q ; ",
"~ R q ..q } M z r M ) w q B 5 V B Q Q $ $ P 9 J O.V ` Q 4.w z B ! R 7 +.q Q M z t 9 &.k ..~ V 0 S Q R z E B &.B d B ( Q 4.p t A ",
"$.#.V q.S Q Q ~ o.V _ V ` p Q k S ..p q - Q d } n B _ B 6.V ..M $.#.V q.R Q | _ ..z { M ..V ..w o.5 8 7 _ y q k N d ( B 6.V ( M ",
" .A ( W % p d R w Q B V d Q Q p 3 p Q &.y u =.Q B M $ n X.q.X.S } A ..V % p w R 9 A E M X.M ..0 s e ^ B ( Z o.~ b M $ n X.6.X.Q ",
"S S S B v S V _ w M S X.C I ` 5 Q o.( r d & o.p p +.> } S X.q ( S A S B v S B ! r ` M 6 ( D M C ..t o.r = B V R A | < } S X.w ~ ",
"C O.& C ~ M &.o.M k M 3.9 w 7 B O...X.9 p Q p S G w.( A n = O.e Z O.& N S B 4.o.S M 6 : = V S 6.: M r w ( Z N t ` 3...A C ; X.8 "
};
