/* XPM */
static char *_9b26faea2364185e572c1a520df14dapcEVkTxhsQrVcLg9[] = {
/* columns rows colors chars-per-pixel */
"64 64 179 2 ",
"   c #3E451B",
".  c #3F511E",
"X  c #3B4222",
"o  c #42471E",
"O  c #42491E",
"+  c #46511F",
"@  c #4A5B1F",
"#  c #505B1F",
"$  c #434D21",
"%  c #455322",
"&  c #4A5524",
"*  c #475923",
"=  c #4D5C25",
"-  c #4D542A",
";  c #4D5B29",
":  c #525E26",
">  c #52562C",
",  c #5D572F",
"<  c #535D2B",
"1  c #5C5C2D",
"2  c #5C5F32",
"3  c #4E6225",
"4  c #4F612B",
"5  c #536325",
"6  c #5A6525",
"7  c #556926",
"8  c #5B6C25",
"9  c #54642B",
"0  c #59652C",
"q  c #566A2A",
"w  c #5B6C2D",
"e  c #5C7126",
"r  c #5D722D",
"t  c #5F792D",
"y  c #546432",
"u  c #5C6431",
"i  c #566A31",
"p  c #5C6C32",
"a  c #5B673A",
"s  c #5E6D3A",
"d  c #5E7232",
"f  c #61672D",
"g  c #626E2D",
"h  c #607426",
"j  c #62732E",
"k  c #6A772E",
"l  c #647A2D",
"z  c #69792D",
"x  c #616532",
"c  c #626D33",
"v  c #6A6B33",
"b  c #626C38",
"n  c #637433",
"m  c #6A7534",
"M  c #657A34",
"N  c #6A7C35",
"B  c #647439",
"V  c #6A753A",
"C  c #667B3A",
"Z  c #6B7C3B",
"A  c #717B37",
"S  c #727538",
"D  c #727D3B",
"F  c #523B40",
"G  c #677640",
"H  c #697740",
"J  c #677A41",
"K  c #6D7D42",
"L  c #697F48",
"P  c #727D42",
"I  c #56587B",
"U  c #802954",
"Y  c #D01946",
"T  c #895A45",
"R  c #E84444",
"E  c #67852D",
"W  c #6B822E",
"Q  c #748D2F",
"!  c #678033",
"~  c #6B8234",
"^  c #6E8937",
"/  c #6D833B",
"(  c #6E893A",
")  c #728336",
"_  c #748B36",
"`  c #798D37",
"'  c #72843C",
"]  c #79843E",
"[  c #748B3D",
"{  c #7A8B3E",
"}  c #739031",
"|  c #7B9436",
" . c #75903C",
".. c #79933D",
"X. c #6F8441",
"o. c #6D8242",
"O. c #6D8841",
"+. c #6F8448",
"@. c #718141",
"#. c #758341",
"$. c #768542",
"%. c #768247",
"&. c #768746",
"*. c #738443",
"=. c #7A8444",
"-. c #738842",
";. c #758B42",
":. c #748D41",
">. c #728946",
",. c #758944",
"<. c #768A45",
"1. c #748C45",
"2. c #758A43",
"3. c #788B42",
"4. c #798D40",
"5. c #798E43",
"6. c #7A8C44",
"7. c #728549",
"8. c #7A874C",
"9. c #7A844B",
"0. c #768B4B",
"q. c #76884C",
"w. c #768B4A",
"e. c #7A8A49",
"r. c #7A8C4B",
"t. c #7C8C4B",
"y. c #779247",
"u. c #779143",
"i. c #7A9042",
"p. c #7A9044",
"a. c #7C9244",
"s. c #779048",
"d. c #7C9149",
"f. c #7C9348",
"g. c #7B9449",
"h. c #7C924E",
"j. c #7C934A",
"k. c #7F9B4A",
"l. c #758B53",
"z. c #7D8C57",
"x. c #7D8D54",
"c. c #7D9550",
"v. c #859A3E",
"b. c #D1851E",
"n. c #808D43",
"m. c #81854C",
"M. c #818D4B",
"N. c #849347",
"B. c #809747",
"V. c #829445",
"C. c #839D47",
"Z. c #819B45",
"A. c #80974D",
"S. c #86964F",
"D. c #83944D",
"F. c #8A934E",
"G. c #839A4C",
"H. c #899B4F",
"J. c #818852",
"K. c #859252",
"L. c #889454",
"P. c #849953",
"I. c #889C53",
"U. c #899855",
"Y. c #8B9C52",
"T. c #86965B",
"R. c #8B9059",
"E. c #86995C",
"W. c #8D9E5B",
"Q. c #949C5D",
"!. c #86A14C",
"~. c #89A04F",
"^. c #8CA352",
"/. c #91A25C",
"(. c #FFD569",
"). c #5880CC",
"_. c #62ABD4",
"`. c #DFBBB3",
"'. c white",
/* pixels */
"w r.D n N.6.r g 0 N V g c 4.B / A.@.w / C h.y.g.9 i ! C C 7.&.< w r.Z l N.6.r N 4 l 9 !.[ / B.' ] ] f r.[ w z j n n M ! C 7.&.; ",
"t.i r i.) j C M 0 Z _ A o.M Y.B 4.B.  y 9 o X.1.7.p / i ,.,.Z y t.i r i.' r C ~ d ~ 4.r ~ 6 N 8 n [ : Z a.m g c c p / y 1.>.H i ",
"-./ p S.9 r ~ B n N v B $.w n V 8.c ' ,.8./ o.d o.w +.K &.s z.n ,.Z s S.q r / d d :.{ ' j n m N { a.C Z.[ z p t.d d Z p C d z.c ",
"M i.n Z n M = d 7 _ N V p @.U.Z n q n / p d s / g.[ / C ' d ; d d G.M Z n M 4 d 7 n r ' @.m { D { M n | M ' g n ' p P V 0 d ; p ",
"3 n c u ~ [ 6 8 M $.e.m r #.g M V ' [ M p / d 9 0./ / C Z J o./ w j 0 x ~ N w N B [ 3.Z 0 P.V [ Z 4 _ E ~ N ~ / :.n c Z q s P / ",
"n a.: c N w B M ~ M.6 p / L.9 D V 0 { 7 -.G.q o.l.h.K 7.V B +.T.C $.$ p N n { n -.8.P M.u P ~ / ( M ^.~ :.s n d w w n n 0 < 7.E.",
"{ -.$.B D <.$.M e p -.N @.V c m v N w d : d 9 % 4 B 9 N p p d r.6.#.@.V A ' -.Z ~ P B N <.C r { t a.k.^ / a.B [ = s.p n s q ; E.",
"C / :.w n @.Z _ ! n Z N c 1 f S A x B M r B r c o.O.d M V *.C / -.-.@.B n e./ -.Z P J M n / ! j l ^ E 7 a.n r r 1.C C / Z o.B N ",
"n d r p B [ ~ a.Z.~ m c 0 6.x #.x $.' / M g <.g B d / d p +.Z s c.K M -.w / Z -.s 1.Z p < N d M ..( t M ~ ~ [ C.B B d B B +.K a ",
"( r   / 7 f.1.u.w 4.n ~ C M B N V D @.{ ' ' P m -.& d w.Z B K y -.C C w n 1.<.y.Z Y.D./ o.' 0 q } E ! ( / ^ r Z.w -.B Z M N H y ",
"C p C / w / 4 C p C -.a.$.D m 6.A V V A D.n ' m.<.Z / H O.p B p N X.s ( d / 9 ( E.o.o./ O.0 M n k.t 6.*.^.j a.E d { C C ~ n C p ",
"q :.d 7 [ s ~ r N N ~ ~ G.) g _ ' 3.$.) =.6.D P n.3.p N o.&.C L G ; M r :.d / i l.O.M O.^ l + 5 a.d d d w 7 -.M / -.0 / *.<.C L ",
"r a.N / d o.3 Z M { { E ` _ m ) 9.f 6 A #.' D K.:.n 0 D 6.N C M N X.Z ( d ' 3 Z / g.h.M P.7 B m G.y 0  .3 t N 6.[ n 0 Z t.Z C n ",
"M.w.c p ^ a.d p D ^ ~ {  .! n n.S.N n.m.m.D @.6.Z :.) l c n B B t.,.b p / a.d B B t X.5 a.( M n B j N B.' n ~ Z N 3.A l j b B N ",
"R.' ' p j C j o.6.~ ' N j W M.~ -.&.V.D A [ A Z m V D 0 -.$.D K R.' D p j C r 0.+.d y ! t c.M / i { c D.q 1.d 9 n c ' 0 -.<.X.Z ",
"Q.-.B B p [ :.( 1.N 5 -.4.D k ~ 4.N f.m p D Z P n 6 Z e.Z @.%.P Q.-.B M p [ u.:.s P.u.a.i J : 3.% d p   w N e.n N f ' %.Z @.%.P ",
"L.0 / n N = i.' N V ' 5 ' B V V A ~ -.N ' Z t.x D.V V.m 3.m.F.n.S.0 / B ~ = a.f.Z a.{ [ ~ M 9 M ' a.M l e k.r / / C V.n 6.m.F.n.",
"&.n C q f g N { ' P ~ { V.V.) c ~ ' M ~ D H 4.T t.[ V ] m A ' V <.b M w 0 f ) B 1.C [ Z p w n ' M / N w / ! / i d / Z ' V A ) B ",
"B.M f.9 B s ^ [ w -.D _ W l M N ~ 6.M ' j N 0 g N 8.e./.<.] [ -.B.M g.9 B p u.X.n Z b.b.:.G.n g i.z C p r / / :.,.s.o./.<.] ] <.",
"N H.i.l ^ N ^ r ~ N e g { E 7 l ~ N r d n n N &.C N D.B.b.(.(.(.(.(.(.(.b.b./ <.D y.b.b.M l r j ^ 9 Z = [ ( w M X.C f.Z.1.c v.0 ",
"e t 7 / 4 / p Z ` n ' @ l j D.5 [ r :.w b.I Z ' q.D.b.(.(.Y U U Y F Y b.b.(.(.b.j { 9 Z w & D g E j m j M M w C j L.n f.! _ ' ` ",
"l = a.` d s.4.' k N j 8 N N n i Z q n n T ).d c n T b.U U U Y Y Y Y R R R R R (.(./ s Z _ D Z f 9 v.n.n N w N w M ' #.p c / _ / ",
"i.+.5 <.M d a.Z 6 k z ' 6.` d +.w r { 0 8.c < L.T Y U U Y Y Y R R Y R R R R R Y b.(.n r w g 4.Z = [ ) D $.N ) M ^ b D t.!.M { r ",
"i.Z 1.9 q o.M ~ n ) W f [ l / 4.C d : 0 p 6 < I Y U U Y Y Y Y R R R R R R R R Y R b.(.i w (.[ :.9 = 3.= 6./ N Z j c -.q M / l 5 ",
":.d = + w O.!.q n Z m 5 = 8 ( r s d   7 q 9 I Y U F U U Y Y R R Y R R R `.'.'.'.`.R b.(.j r < a.4 g 6.M j l :.n a.: #.~ B.N a.! ",
"D./ [ ! [ k.d d C N j $.H.0 5 d d n ).B w ).).U F U Y Y Y Y R R Y R R R '.'.'.'.'.Y Y (.b.3.6.w q n < Z E ' ' M Z q t.N ~ r ^ / ",
"r g.G.Z M [ u.` ~ m ) ] N #.9 7 7 ' / n p _.U F F U Y Y R R Y Y Y R R R '.'.'.'.'.`.R R (.a.G.^./ r.M.[ 9 w / M 9 { 3.V :.~ Z 4 ",
"' ~ 9 w.q o.n l j n =.8 w m 7 W M ' / $ )._.U F U Y Y Y R R R R R R R R '.'.'.'.'.'.Y Y (.b.N 0 Z / ~ l ^ M t.! p M [ Z N.p t B ",
"j.w.N K.Z / / ' $.~ ' N :.p o.n N -.p q _.Y U F U Y Y R Y Y R R R R R R `.'.'.'.'.'.Y R b.b.$.q -.5 8 7 :.q q w m n ' B F.N ' n ",
"o./ $.N % d w ~ i ^ N N d ! ~ p ; p / a._.Y U F F U Y R Y R R R R R R R R '.'.'.'.'.Y R b.(.$.0 s 8 _ M ' N $.' c j $ s %.S.$./ ",
"C C Z n c N ~ _ w n N 6.B P { 9 / -.' r _.U F F F U Y Y Y R R R R R R R R `.'.'.'.`.Y Y R (.n C $.r [ r = n N / Z / < *.V %.8 ' ",
"B 6.& C Z B V.-.B j n M.9 p 5 M a.-.#.q _.U F F U Y Y Y Y Y R R R R R '.'.R R R R R R Y Y (.Z S.: n d w ' V m l [ M.$.C B : <.8 ",
"0 r.Z l G.4.r r 0 N N g p { n / A.@.w o._.U F F U Y Y Y Y R R R R Y R `.'.R R R R R R Y Y (.Z.D ] { f w./ 8 N j n n M / C 7.e.& ",
"f.i p i.) d C M 6 Z ' A o.C Y.B i.B.  < _.U F F F U Y Y Y R R R R Y R R R R R Y R R Y Y U (.N 0 M { & N V.m g c c p / 9 1.O.H i ",
"<.Z s S.6 p ~ n p N v n -.p B V &.n -.<._.).U F F U Y U U Y R R Y Y R R R R R Y R Y Y Y U (.M N ' C.n | | M f t.p w @.p C d z.n ",
"d G.M A n M & w : ) N V w @.L.D m 9 n Z ).).U F F F U U U Y Y Y R R Y R R R Y Y Y Y Y U Y (.] ' i.N ~ N / { 0 c n 9 K V 0 d ; p ",
"w j 0 x ~ ' : 5 m ' J.N r #.g N N / [ n )._.U F F F U Y Y Y Y Y R R Y Y Y Y Y Y Y Y Y U (.b.N -.n 7 V.n ' g ~ Z./ l p D 9 s P / ",
"C &.o p N w m p N F.: p / R.9 Z V 6 [ w [ _.U F F F F U Y Y Y Y Y Y Y R R Y Y U U Y U U (.P Z { 6.-.c H.p : h ^ g g w p = > 7.E.",
"t.#.P V Z D./ n M i $.Z &.V c v v N p r * )._.U F F F F U U Y U U Y Y Y Y Y Y Y U U U b.b.[ * M { W.b M.' V.' j ' V 0 c s 9 = E.",
"4.$./ B n $.K K <.n N N c 6 x S S x B M w d _.).U F F F F F U U Y Y Y Y Y Y U U F U R T P (.~ ' z l m ' j <.Z d Z ! 8 n V J B N ",
"P.J M :.q N b B n j 0 n 0 6.x #.x 6.' C ^ X.O._.).U F F F F F F U U U U U U F F U R T K c V ! a.' D ) : c D m -.-.w [ d r +.Z a ",
"O./ Z q C ' p n 7 n H N n Z l V S #.%.-.9 c ,.C _.).U F F F F F F F F F F F F U R I p x.w ' Z :.n z Z g w w N ^ +.k d *.Z B K y ",
"! o.s  .B B / ' ~ w / :.H o.n n.' 0 Z I ).).I ~ : _._.U U U U F F F F U U U U ).I Z & T b.b.6 v r r ~ [ : : : h _ w N G *.p B s ",
"J X M B D.5 d C ' / <.q ! : j 6.x , 7 ).d ( ).r 5 B )._._.).).U U U U Y Y _._.).` n w ).A b.g S z n n $.6 8 8 8 _ 9 n n B o.B 7.",
"a.d [ G.D.~ K j l N n D./ :.: Z r...w ).<.H.).! ~ %.Z -.).)._._._._._._._.).Z c N p n ).).I g ) n Z ) Z w N N g A K N / B < B i ",
"K 3 d = f.& K 0 c V : c -.6.V c $ V m I ).).I d ~ B > x N y % s Z - d 3 j.& K 6 n : m ] w B.g m g v ~ ' N N c g m b < x C y $ p ",
"n 3 r l B / n j N n j 0 / S N B r ' n m J.< -./ u.( N 0 9 < & C c 9 r j B / ).j N + < N D V j A m., / g j 5 a.' ' [ Z 9 9 9 - Z ",
"C Z T.8 w *.T.t.0 -.g p p Z N q ' ..M n < $...~ 4 / p 9 Y.[ ; 7 C V P.r w o.T.M.p +.X.6.V <.N e.K.P D p e w w n q ~ p 9 Y.' & w ",
"; 7.s N ' = C 9 n p [ 5 r d d p d ' t N t :.C N n <.j.C t.q d w ; 7.s N ' ; C 0 n p [ A f 6.0 Z a.P c 9 N.9 r n B 4.g.C w.w d q ",
"p a 9 n M o Z B n B ' M n [ ~ q 5 -.% M d y 9 O.q p 0.3 ~ ; O.a p p 9 l C $ Z n n v D Z r N P M.#.0 9 K B ' 8 / 0 s w.9 ~ 3 O.a ",
"+.o.t.d - @ [ w / _ Z $.n / 9 N w p p { ; d ..; x.e o.O.:.d B K 7.L t.n ; @ [ p / 4.B <.B ) w V j 0 n u N l E = t.t / O.:.d C o.",
"s * Z r.& = &.B %.9 n w j ~ q ~ ^ N d n t  .t r 5 N :.M 3 s.7 s s ; Z %.= 9 *.B *.< 6.M.D 6 D V z = u V t l 3 r 9 N [ n 3 s.9 u ",
"/ 4 ,.; [ C n / B n 0 q r n G.7 :.r ( 9 ' C E 7 l d ; s ( t d / N q C d d C d ' B Z c Z S g 2 y M j p n l ! r n l d ; B / t d o.",
",.i n w d -.t.S c n M g N N l u C q n M M t n n ~ ' ! * . d ( d ~ 9 i.( d t.B.Z b d i n k 7 5 B p l 9 p &.! d X.M / ! * . i [ d ",
"/ * n N t i x , : Z h [ 4._ d -.w r 3.2 %.p n 4 e ! / B d q / e 4.+.3 <.M p <.V 9 P B n 5 N / *.B [ / P 8.Z d 9 e M / C d p ~ q ",
"/ d i p M Z n n N Z z f [ M C ' n d < 6 p w V o.o.s.L q / / r 3 a.Z 4.7 q @.M M N n ~ M n 9 n / 9 = -.: 3.M w d d X.o.i ~ ^ d 7 ",
"N [ < 0 Z Z [ 9 c N k 5 = 8 ~ d a B o 7 w 9 K ~ = * n n !.r a.C :.d * * w ,.!.4 O./ t M n n : a.4 c 6.t r l -.n -.; D N C.N a.M ",
"<./ ~ ~ [ B.d d M Z v #.G.0 7 p N n & B w n 4.& c 9 D.N ~ r ^ K D./ -.N  .B.d w d = y.B C { 6.w q n < N N ( ' M C q M.N ~ r ( / ",
"d a.G.Z M [ u._ Z M ) D ! #.q 9 7 ^ / n p p 1.@.9.D.6.V [ / C 4 d g.G.Z M -.u. .~ / r d <.a.G.^.X.<.M.{ 9 r / M 9 { 3.V [ ~ / 4 ",
"' ! 9 w.q o.j E r n v.0 0 m 5 ! M ' / $ $ K 9 H 4.N { ' V.w l M ' ! 7 <.7 K l l r 9 a.n @./ N 0 Z / ~ l ^ M t.! p M [ / N.s t d ",
"j.w.Z D.N / o.' $.~ ' N ..p / M N -.p q & / d K c n [ M F.N #.n h.w.m P.~ / / ' $.n ..M @.N $.q -.5 8 5 :.0 w 8 V n ' B S.N @.n ",
"K C -.~ & d p ~ p / M N d Z / w = s / a.y u j./ B M $ b P D.$./ o.C $.N % s d ~ 9 C ~ l 9.n $.0 p r _ N / N -.' c j $ b #.F.$.^ ",
"Z N Z n c N ~ ( w n N 6.B K { 9 ~ <.' r n * [ d p <.< P V e.8 ' N C Z B c N ! ^ d { k 0 ' N n C -.r [ r = n Z ~ N X.: o.V e.w D ",
"B 4.- B Z n V.-.n j n t.0 w 5 N a.&.P q u o.s J D J.[ C B ; <.8 V 6.& M D m B.-.N l 0 @ = A Z S.: n d w ' V m l { t.{ B B ; <.e "
};
