/* XPM */
static char *door1685613591[] = {
/* columns rows colors chars-per-pixel */
"64 64 213 2 ",
"   c #481201",
".  c #551701",
"X  c #5C1A02",
"o  c #611900",
"O  c #6C1B00",
"+  c #741D00",
"@  c #7D1F00",
"#  c #5D240B",
"$  c #69230B",
"%  c #682A15",
"&  c #792C15",
"*  c #6F3019",
"=  c #6C3D1D",
"-  c #723217",
";  c #793816",
":  c #743B1A",
">  c #793A18",
",  c #4E3F2A",
"<  c #5B3B28",
"1  c #6C3E2C",
"2  c #7C3022",
"3  c #3E451C",
"4  c #3F511E",
"5  c #3B4222",
"6  c #3A4D33",
"7  c #3D5136",
"8  c #3F5438",
"9  c #42491E",
"0  c #4B5C1F",
"q  c #78431F",
"w  c #45462E",
"e  c #4B442C",
"r  c #444A2A",
"t  c #465322",
"y  c #4A5525",
"u  c #4A5727",
"i  c #4D5C26",
"p  c #4D5B29",
"a  c #535D2B",
"s  c #555C28",
"d  c #474730",
"f  c #414A31",
"g  c #524731",
"h  c #5C4530",
"j  c #435535",
"k  c #495A34",
"l  c #415639",
"z  c #455B3D",
"x  c #495B3B",
"c  c #545935",
"v  c #65472A",
"b  c #684A28",
"n  c #764320",
"m  c #7D4525",
"M  c #704729",
"N  c #654531",
"B  c #734431",
"V  c #7B4231",
"C  c #4E6126",
"Z  c #4F612C",
"A  c #526326",
"S  c #556926",
"D  c #5E6F27",
"F  c #54642B",
"G  c #59652C",
"H  c #566A2A",
"J  c #5B6C2D",
"K  c #5C7427",
"L  c #5E732D",
"P  c #4D6234",
"I  c #4C633A",
"U  c #546534",
"Y  c #5B6432",
"T  c #546A33",
"R  c #5C6D32",
"E  c #55673A",
"W  c #5D6E3A",
"Q  c #5E7333",
"!  c #5C723B",
"~  c #616D2E",
"^  c #61732E",
"/  c #63792D",
"(  c #69792D",
")  c #616532",
"_  c #626D34",
"`  c #616B38",
"'  c #637434",
"]  c #697535",
"[  c #657B34",
"{  c #6A7C35",
"}  c #64743A",
"|  c #6A763B",
" . c #667B3A",
".. c #6B7D3B",
"X. c #717F3B",
"o. c #566A40",
"O. c #677E42",
"+. c #6D7D42",
"@. c #717E41",
"#. c #811F00",
"$. c #852000",
"%. c #8B2200",
"&. c #952300",
"*. c #9B2400",
"=. c #9B2D08",
"-. c #8C320E",
";. c #96320C",
":. c #8A251A",
">. c #883313",
",. c #883A15",
"<. c #843419",
"1. c #8A3519",
"2. c #923619",
"3. c #9C3819",
"4. c #A42600",
"5. c #A82700",
"6. c #A52B05",
"7. c #AD2800",
"8. c #AF3106",
"9. c #AF3A0D",
"0. c #B1330B",
"q. c #B13A0D",
"w. c #B1211B",
"e. c #A83B16",
"r. c #B23610",
"t. c #B33A14",
"y. c #B53D19",
"u. c #972B20",
"i. c #8C3527",
"p. c #913024",
"a. c #C9342D",
"s. c #CD3931",
"d. c #D53B33",
"f. c #89431B",
"g. c #964B1F",
"h. c #A6421E",
"j. c #B34415",
"k. c #BA4716",
"l. c #B6411C",
"z. c #B44818",
"x. c #824C2A",
"c. c #98502A",
"v. c #835C34",
"b. c #B94922",
"n. c #A75B29",
"m. c #A65C2B",
"M. c #B75626",
"N. c #B85924",
"B. c #BA5C2B",
"V. c #A25F36",
"C. c #86643A",
"Z. c #B5642D",
"A. c #BA622B",
"S. c #A66337",
"D. c #BD6335",
"F. c #BB6A32",
"G. c #B96739",
"H. c #BE713B",
"J. c #D14037",
"K. c #D84037",
"L. c #DB4239",
"P. c #D0682C",
"I. c #C26D37",
"U. c #D06F3C",
"Y. c #C47239",
"T. c #CD7939",
"R. c #D37D3B",
"E. c #BD7643",
"W. c #C47A44",
"Q. c #69832E",
"!. c #6B8235",
"~. c #6F8937",
"^. c #6D833B",
"/. c #6E883B",
"(. c #728336",
"). c #758B36",
"_. c #778F35",
"`. c #72843C",
"'. c #79863D",
"]. c #748B3D",
"[. c #7A8A3D",
"{. c #6E8142",
"}. c #6E8448",
"|. c #738443",
" X c #798444",
".X c #748A43",
"XX c #7A8C43",
"oX c #72854A",
"OX c #778C49",
"+X c #7C8D4B",
"@X c #779245",
"#X c #7C9244",
"$X c #7C934A",
"%X c #7B9649",
"&X c #7D8C57",
"*X c #E0843F",
"=X c #818D4B",
"-X c #839446",
";X c #829B45",
":X c #83944D",
">X c #8B914F",
",X c #839A4B",
"<X c #839953",
"1X c #8B9B52",
"2X c #8A9659",
"3X c #87995D",
"4X c #949C5D",
"5X c #8AA24E",
"6X c #CD844B",
"7X c #DA864C",
"8X c #DB8C50",
"9X c #E08E50",
"0X c #E29052",
/* pixels */
"J +XX./ -XXXL ^ G { ] ~ _ XX' ^.,X`.J /.} $X$X%XU U Q P x k 7 6 6 j j k W {.H [ S [ S ;X].`.%X`.`.'.~  X/.H { ^ ] ' [  . .oX|.a ",
"+XU J #X(.L  .' G ..(.X.^. .1X' [.:X3 U U 3 } I 6 6 6 6 6 6 6 6 6 6 6 6 6 6 6 l I ! .XL !.G { D ] ].s ..-X( ~ _ _ R !.U .XOX..U ",
".X..R <XG L !.' ' { ( ] |.R }  .oX^ `..X+.l 6 6 6 6 6 6 6 6 h 1 e 6 6 6 6 6 6 6 8 z o. .^ _ { { ].%X .;X).' R OX_ Q ..R { ! &X_ ",
"[ #X' ..' [ i L H '.] | J X.2XX.] F } k 6 6 6 6 6 6 6 6 6 N K.L.a., 6 6 6 6 6 6 6 8 8 z E ] '.X.[.{ / ].{ `.~ } (.R |.} G ! p J ",
"C ^ _ ) !.).A ~ {  X X] L `.~ ] | ! 7 6 6 6 6 g f 6 6 6 6 p.L.L.d.2 6 6 6 6 f d 7 6 8 z z x ! .X..A _.!.!.!.[ `..X[ R ..S _ @.{.",
"' #Xa _  .J ' [ !.=XG J ^.2XF ..U 6 6 6 6 6 B L.s.e , 6 6 i.L.L.d.* 6 6 g J.J.d.< 6 6 l z z z ! /.[ 5X^..XT [ Q H L _ ' A a oX3X",
"[.|..X' X. X`. .K J .X{  X| _ ] c 6 6 6 6 6 B L.s., e 6 6 i.L.d.d.% 6 6 g J.J.d.< 6 6 l z z z ! L @X;X~.^.@X] ].i XX' ' R H A 3X",
" ./.].R ' |...).!.Q { { _ G ) c 6 6 6 6 6 6 i.L.d.< < 6 6 d u.w.:.6 6 6 N L.L.L.2 6 6 7 z z z z T ~.Q.S %X[ J L .X .} ^.@.{.! ..",
"[ L ' J } .X^.@X;X!.[ ' G W c 6 6 6 6 B 6 6 d p.2 6 6 6 6 6 6 6 6 6 6 6 6 p.u.u.e 6 6 N 6 z z z z ! T [ !.!.].;X}  .Q ' ' oX{.E ",
"^.L 3 ^.S #X.X@XL XX' ^.R 6 6 6 6 6 h d.1 6 6 6 6 6 6 6 6 6 6 6 6 6 6 6 6 6 6 6 6 6 V d.e 8 z z z z z  .^.~.K %XJ {. ...[ | O.U ",
" .R  ...J ^.Z [ G } .X.X6 6 6 6 6 6 6 < 6 6 6 6 7 7 7 8 c N B M : = < e 6 6 6 6 6 6 f < 6 6 l z z z z z <X/ #XQ.' ].}  .!.' ' R ",
"H .XL S ].! !.L [ !.!.k 6 6 6 6 6 6 6 6 6 l l z c x.x.h.y.y.y.y.y.7.7.5.6.; ; e 6 6 6 7 6 6 7 z z I z z I H |.[ ^..XG `.|.oXO.@.",
"L @X..!.Q ^.C ..{ [.[ 6 6 6 6 6 6 6 6 l z z g g.y.y.y.y.e.1.1.<.<.>.#.*.7.7.7.7.>.e 6 6 6 6 6 7 z z z z z Q  .XX).] G X.+X..| ' ",
"=XOX' R ^.$XQ R ..^.j 6 6 6 6 6 6 6 z z z n 7.8.e.<.1.* * * * * * * % o o @ @ *.7.7.> 6 6 6 6 6 8 z z z z I ^... .].(.' ^ ' '  .",
"2X@.`.) ^ !.L {.XX} 6 6 6 6 6 6 l z x x 2.7.4.+ % * * * & <.1.2.2.1.<.$ o o X o + 4.7.-.w 6 6 6 6 o.z z z z E S _ ' `.G |..X`.+.",
"4X'. .} Q /..X/..XP 6 6 6 6 6 6 z x x ;.7.%.o o o 1.<.e.y.y.y.y.y.y.y.y.6.@ @ o o o %.7.=.f 6 6 6 8 8 z z x E ' ] R (.oX..@. X@.",
":XG ^.] { i XX`.[ 7 6 6 6 6 6 z z x ;.7.@ o o @ 5.8.8.y.y.y.y.y.y.y.y.y.t.8.8.5.@ X o @ 7.=.6 6 6 6 6 l z z z {./.^.#X' [.=X>X=X",
"oX}  .H ~ ~ { ].} 6 6 6 6 z z z z ,.7.$.o o &.7.7.7.7.t.y.y.y.y.y.y.y.y.y.y.r.7.5.&.O o + 7.-.6 6 6 6 8 z z z I Q ^...].{ `.X._ ",
"-X[ $XA } R ).].F 6 6 6 6 z l z z ,.7.@ o o %.7.7.7.7.t.y.y.y.y.y.y.y.y.y.t.y.7.7.&.o o @ 7.>.6 6 6 6 7 z z 8 }.|.OX{.4XXX'.'.XX",
"Q.1X.X/ /.{ ^.L U 6 6 6 7 z z z v 7.%.o O *.7.7.7.7.7.7.y.y.y.y.y.y.y.y.y.y.y.r.7.7.*.O o $.7.1 6 6 6 6 8 l o.T {.!.%X%XXX' [.G ",
"K / S !.Z ^.R ..U 6 6 6 z z z x 6.*.o o *.7.7.7.7.7.7.7.0.y.y.y.y.y.y.y.y.y.y.y.r.7.7.4.O X *.5.6 6 6 6 6 k z I Q 1X' $X!.`.).].",
"^ i #X].Q @XXX`.j 6 6 6 z z z q 7.O o &.7.7.7.7.7.7.7.7.7.t.y.y.y.y.y.y.y.y.y.y.y.0.7.5.&.o O 5.= 6 6 6 6 z z I [ X. XR _ !.].!.",
"#X{.A XX[ R #X..7 6 6 l z x x 6.&.X @ 7.7.7.7.7.7.7.7.7.7.8.j.y.y.y.y.y.y.y.y.y.y.y.8.7.7.@ O #.6.6 6 6 6 l z z !._ (.+X5X[ [.K ",
"@X...XH H {.[ !.6 6 6 l z b b 7.O o 6.7.7.7.7.7.7.7.7.5.t.F.H.b.y.D.W.W.b.y.y.y.y.y.y.7.5.5.O O 5.1 = 6 6 8 z I ^ } |.A [ ^./ H ",
"#XL i t L |.5XH 6 6 6 z z ,.1.*.o $.7.7.7.7.7.7.7.7.7.q.F.- . c.D.#   E.G.y.y.y.y.y.y.t.7.7.#.o &.-.;.6 6 8 z z #Xi `.{ ,X{ #X .",
":X^.].[ ].%XQ L 6 6 6 z z 5.6.#.o 4.7.7.7.7.7.7.7.7.7.N.f.    # % . . # E.y.y.y.y.y.y.y.r.7.4.o @ 6.5.6 6 8 z x ..G =X{ !.K !.^.",
"Q #X,X ./ .X@X).7 6 7 z c 7.7.O O 7.7.7.7.7.7.7.7.7.7.M.>   o o . o o X E.y.y.y.y.y.y.y.y.0.7.@ O 7.5.e 6 7 z z A XXXX| ]...^.Z ",
").!.H OXH {.' ( 6 6 7 z v 5.5.o $.7.7.7.7.7.7.7.7.7.7.8.Z.# . X o X o S.D.y.y.y.y.y.y.y.y.y.7.#.X 5.5.v 6 6 z z R [ `.^.-XJ [ [ ",
"+XOX{ :X.././.`.7 6 8 o.v *.*.o &.7.7.7.7.7.7.7.7.7.7.7.8.Z.# . o o V.B.y.y.y.y.y.y.y.y.y.y.r.&.o *.*.: 6 6 z z ] } `.' :X{ `.' ",
"{.O.|.{ t R J !.6 6 8 8 n &.*.o *.7.7.7.7.7.7.7.7.7.7.7.7.0.Z.$ o V.B.y.y.y.y.y.y.y.y.y.y.y.y.6.o &.&.: 6 6 z z _ L t `  X:X X^.",
" . ...' _ X.{ /.6 6 8 I n &.*.o *.7.7.7.7.7.7.7.7.7.7.7.7.0.Z.# X V.B.y.y.y.y.y.y.y.y.y.y.y.y.6.o *.&.: 6 6 z z ..`.a |... XJ (.",
"' #Xu | ..' -X].6 6 8 z n &.&.X 5.7.7.7.7.7.7.7.7.7.7.7.7.7.0.Z.m.l.r.y.y.y.y.y.y.y.y.y.y.y.y.r.o &.#.; 6 6 z z [.+X|.} } u XXD ",
"G +X@./ -X#XJ ^ 6 6 l z n &.&.X 5.7.7.7.7.7.7.7.7.7.7.7.7.7.7.0.z.7.7.y.y.y.y.y.y.y.y.y.y.y.y.y.$ #.&.> 6 6 l z ! ! [ !. .oX|.i ",
"$XT R XX(.L  .[ 6 6 z z n &.&.o 5.7.7.7.7.7.7.7.7.7.7.7.7.7.7.7.7.7.7.0.y.y.y.y.y.y.y.y.b.9X9X9X7XU.U.v.6 6 z z R Q ^.F OX}.O.R ",
".X..R :XF Q !.' 6 6 l z n &.&.o 5.7.7.7.7.7.7.7.7.7.7.7.7.7.7.7.7.7.7.8.y.y.y.y.y.y.y.y.7X0X0X0X0XT.W.C.6 6 z z R J {.R { ! &X_ ",
"' ,X[ { ' { u J 6 6 l x n &.&.o 5.7.7.7.7.7.7.7.7.7.7.7.7.7.7.7.7.7.7.7.r.y.y.y.y.y.y.y.W.W.0X9X8XW.6XC.6 6 z l ' A +.| G Q p J ",
"H ^ G ) (.(.s A 6 6 z z n &.&.o 5.7.7.7.7.7.7.7.7.7.7.7.7.5.7.7.7.7.7.7.7.y.y.y.y.y.y.y.y.D.D.D.S.G.G.V 7 6 8 o.(./ J ..F _ +./.",
" . X9 _  .J ' L 6 6 z z n &.&.o 5.5.7.7.7.7.7.7.7.7.7.7.7.7.7.7.7.7.7.7.7.t.t.y.y.y.y.y.y.y.y.y.* 3.3.m 6 6 z 8 _ ~ J _ u a oX3X",
"XX|.@.| X.:X..' 6 6 l z n &.&.o 5.7.7.7.7.7.7.7.7.7.7.7.7.7.7.7.7.7.7.7.7.0.0.y.y.y.y.y.y.y.y.y.* 3.3.m 6 6 8 I `.| G _ ) A i 3X",
"XX|.|.' ' |.{.+.7 6 z z n &.&.o 5.7.7.7.7.7.7.7.7.7.5.7.7.7.7.7.7.7.7.7.7.7.7.y.y.y.y.y.y.y.y.y.* 3.3.m 6 6 I z ..!.J ' | O.}  .",
"<XO.[ .XG ..} } 6 6 l z n &.&.o 5.7.k.k.0.7.7.7.7.7.7.7.7.7.7.7.7.7.7.7.7.7.7.r.y.y.y.y.y.y.y.y.* 3.3.m 6 6 z z |.H `.^ Q oX..E ",
"}. . .J  .(.R Q 6 6 l I n &.&.o 5.P.*X*XR.k.7.7.7.7.7.7.7.7.7.7.7.7.7.7.7.7.7.7.y.y.y.y.y.y.y.y.* 3.3.m 6 7 z z .X( / oX..' | E ",
"!.^.R ].} } (.^.7 6 l z n &.&.o 5.P.7X*XT.t.7.7.7.7.7.7.7.7.7.7.7.7.7.7.7.7.7.7.y.y.y.y.y.y.y.y.* 3.3.m 6 6 z z (.D  .} oXR  .R ",
"O.5  .[ :XC '  .7 6 z z n &.&.X 0.R.*X*XR.I.7.7.7.7.7.7.7.7.7.7.7.7.7.7.7.7.7.7.y.y.y.y.y.y.y.y.* 3.3.m 6 6 z z ].F ' } ' oX} oX",
"@X' ].,X:X!.+.J 7 6 l z n &.&.o 9.*X*X7XR.I.7.7.7.7.7.7.7.7.7.7.7.7.7.7.7.7.7.7.0.y.y.y.y.y.y.y.* 3.3.m 6 6 z z `.^...`.' c } F ",
"|.C Q p -Xu +.G 6 6 l x n &.&.X 8.I.R.R.Y.N.7.7.7.7.7.7.7.7.7.7.7.7.7.7.7.7.7.7.7.y.y.y.y.y.y.y.* 3.3.m 6 6 z z ] ) c )  .Y t R ",
"R A ^ / ' ^.' ^ 6 6 l z n &.&.o 6.8.B.A.N.8.7.7.7.7.7.7.7.7.7.7.7.7.7.7.7.7.7.7.7.r.y.y.y.y.y.y.* 3.3.m 6 6 z z (.]...F A p u ..",
" . .<X~ H |.3X+X6 6 l z n &.&.X 7.7.7.7.7.7.7.7.7.7.7.7.7.7.7.7.7.7.7.7.7.7.7.7.7.0.y.y.y.y.y.y.* 3.3.m 6 7 z z H ..Q A 1X'.p G ",
"a oXW { `.i ..G 6 6 l z n &.&.o 5.0.z.z.j.5.7.7.7.7.7.7.7.7.7.7.7.7.7.7.7.7.7.7.7.7.t.y.y.y.y.y.* 3.3.m 6 7 z z | XX%X .OXT Q H ",
"G W S ' ' 9  .} 6 6 j z n &.&.o 7.z.n.g.B.7.7.7.7.7.7.7.7.7.7.7.7.7.7.7.7.7.7.7.7.7.r.y.y.y.y.y.* 3.3.m 6 7 z z G R OXC !.C oXR ",
"oXO.OX' p 0 '.J 7 6 7 z n &.&.o 6.j.& o N.7.7.7.7.7.7.7.7.7.7.7.7.7.7.7.7.7.7.7.7.7.0.y.y.y.y.y.* 3.3.m 6 8 z z &XK ^.|..XR  .{.",
"W u ..+Xt i oX} 7 6 7 z n &.&.X 7.j.n.,.Z.7.5.7.7.7.7.7.7.7.7.7.7.7.7.7.7.7.7.7.7.7.7.y.y.y.y.y.* 3.3.m 7 l z z F { ].[ C $XA Y ",
"^.Z OXs ].[ ~ (.6 6 8 z n &.&.o 5.z.n.f.b.7.7.7.7.7.7.7.7.7.7.7.7.7.7.7.7.7.7.7.7.7.7.t.y.y.y.y.* 3.3.m 6 l z z L Q Z } /.Q L ^.",
".XT [ H Q .X=XX.6 6 7 z q &.&.o 5.y.F.F.b.7.7.7.7.7.7.7.7.7.7.7.7.7.7.7.7.7.7.7.7.7.7.0.y.y.y.y.* 3.3.m 6 l z z !.!.!.t 4 Q /.Q ",
"..u '  .Q J _ c 6 6 7 z n &.&.o 5.j.B.I.M.7.7.7.7.7.7.7.7.7.7.7.7.7.7.7.7.7.7.7.7.7.7.0.y.y.y.y.* 3.3.m 6 l z z S [ ^. .Q Q !.H ",
"!.Q H R [  ._ ' 7 6 6 z n &.&.o 5.7.7.7.7.7.7.7.7.7.7.7.7.7.7.7.7.7.7.7.7.7.7.7.7.7.7.0.y.y.y.y.* 3.3.m 6 l z z Q |.{.T !.^.L H ",
"[ ].A G [ ^.].F 6 6 7 z n &.&.o 5.7.7.7.7.7.7.7.7.7.7.7.7.7.7.7.7.7.7.7.7.7.7.7.7.7.7.7.y.W.W.W.W.G.E.C.6 z z z .Xi X.{ ,X[ %X[ ",
"oX^.^.{ ].,XQ L 6 6 7 z n &.&.o 5.7.7.7.7.7.7.7.7.7.7.7.7.7.7.7.7.7.7.7.7.7.7.7.7.7.7.7.W.0X9X9X9X6X6XC.6 z z z  .H =X{ !.K /.(.",
"^ %X,X..[ .X@X).7 6 6 x n &.&.o 5.7.7.7.7.7.7.7.7.7.7.7.7.7.7.7.7.7.7.7.7.7.7.7.7.7.7.8.U.9X9X9X9X6X6XC.6 z z x A .XXX| .X!.!.P ",
").{ H .XH +.' ( 6 6 6 l n &.&.o 5.7.7.7.7.7.7.7.7.7.7.7.7.7.7.7.7.7.7.7.7.7.7.7.7.7.7.7.0.U.W.W.E.W.E.C.6 z z z Q [ `.^.-XR L [ ",
"+XOX..:X../.^.`.6 6 6 z n &.&.o 5.7.7.7.7.7.7.7.7.7.7.7.7.7.7.7.7.7.7.7.7.7.7.7.7.7.7.7.5.y.y.y.* 3.3.1 6 z z z ] ~ /.} :X{ `.' ",
"+. .|.{ t Q R !.6 6 6 z n &.&.o 7.7.7.7.7.7.7.7.7.7.7.7.7.7.7.7.7.7.7.7.7.7.7.7.7.7.7.7.7.t.y.y.* 3.e.x.7 z z z ' ^ r _  X>X|.^.",
"..{ ..' _ { Q.^.6 6 6 l n &.&.o 7.7.7.7.7.7.7.7.7.7.7.7.7.7.7.7.7.7.7.7.7.7.7.7.7.7.7.7.7.0.y.y.* 3.3.: 7 z z z ..`.a |... XD X.",
"' +Xu  ...' -XXX7 6 6 l n &.&.o 7.7.7.7.7.7.7.7.7.7.7.7.7.7.7.7.7.7.7.7.7.7.7.7.7.7.7.7.7.8.y.y.* 3.3.m 8 z z z [.+X.X} } u XXD "
};
