/* XPM */
static char *door1685612118[] = {
/* columns rows colors chars-per-pixel */
"64 64 223 2 ",
"   c #451000",
".  c #4C1503",
"X  c #591700",
"o  c #5C1A02",
"O  c #521702",
"+  c #611900",
"@  c #6C1B00",
"#  c #741D00",
"$  c #7D1F00",
"%  c #5D240B",
"&  c #69230B",
"*  c #682A15",
"=  c #6F3019",
"-  c #673F1F",
";  c #6C3D1D",
":  c #793816",
">  c #743B1A",
",  c #793A18",
"<  c #723217",
"1  c #792C15",
"2  c #5B3B28",
"3  c #4E3F2A",
"4  c #6C3E2C",
"5  c #7C3022",
"6  c #3E451C",
"7  c #3F511E",
"8  c #3A4D33",
"9  c #3D5136",
"0  c #3F5438",
"q  c #3B4222",
"w  c #42491E",
"e  c #4B5C1F",
"r  c #78431F",
"t  c #45462E",
"y  c #4B442C",
"u  c #444A2A",
"i  c #584426",
"p  c #465322",
"a  c #4A5525",
"s  c #4D5C26",
"d  c #4D5B29",
"f  c #4A5727",
"g  c #535D2B",
"h  c #555C28",
"j  c #414A31",
"k  c #474730",
"l  c #524731",
"z  c #5C4530",
"x  c #435535",
"c  c #415639",
"v  c #455B3D",
"b  c #495B3B",
"n  c #495A34",
"m  c #545935",
"M  c #684A28",
"N  c #65472A",
"B  c #764320",
"V  c #7D4525",
"C  c #704729",
"Z  c #734431",
"A  c #7B4231",
"S  c #654531",
"D  c #4E6126",
"F  c #4F612C",
"G  c #526326",
"H  c #556926",
"J  c #54642B",
"K  c #59652C",
"L  c #566A2A",
"P  c #5B6C2D",
"I  c #5E6F27",
"U  c #5E732D",
"Y  c #5C7427",
"T  c #4C633A",
"R  c #4D6234",
"E  c #546534",
"W  c #5B6432",
"Q  c #546A33",
"!  c #5C6D32",
"~  c #5D6E3A",
"^  c #55673A",
"/  c #5E7333",
"(  c #5C723B",
")  c #616D2E",
"_  c #61732E",
"`  c #63792D",
"'  c #69792D",
"]  c #616532",
"[  c #626D34",
"{  c #616B38",
"}  c #637434",
"|  c #697535",
" . c #657B34",
".. c #6A7C35",
"X. c #64743A",
"o. c #6A763B",
"O. c #667B3A",
"+. c #6B7D3B",
"@. c #717F3B",
"#. c #566A40",
"$. c #6D7D42",
"%. c #677E42",
"&. c #717E41",
"*. c #811F00",
"=. c #852000",
"-. c #8B2200",
";. c #952300",
":. c #9B2400",
">. c #9B2D08",
",. c #9F2D06",
"<. c #8C320E",
"1. c #96320C",
"2. c #883313",
"3. c #843419",
"4. c #8A3519",
"5. c #883A15",
"6. c #923619",
"7. c #9C3819",
"8. c #903611",
"9. c #8A251A",
"0. c #A42600",
"q. c #A82700",
"w. c #A52B05",
"e. c #AD2800",
"r. c #AF3106",
"t. c #AF3A0D",
"y. c #B1330B",
"u. c #B13A0D",
"i. c #A83B16",
"p. c #B23610",
"a. c #B33A14",
"s. c #B53D19",
"d. c #B1211B",
"f. c #8C3527",
"g. c #913024",
"h. c #972B20",
"j. c #A6392D",
"k. c #CD3931",
"l. c #D53B33",
"z. c #C9342D",
"x. c #89431B",
"c. c #964B1F",
"v. c #B6411C",
"b. c #B44818",
"n. c #B54515",
"m. c #A6421E",
"M. c #824C2A",
"N. c #835C34",
"B. c #98502A",
"V. c #B94922",
"C. c #A65C2B",
"Z. c #A75B29",
"A. c #B85924",
"S. c #BA5C2B",
"D. c #B75626",
"F. c #A25F36",
"G. c #87683F",
"H. c #856237",
"J. c #BA622B",
"K. c #B5642D",
"L. c #A66337",
"P. c #BD6335",
"I. c #BB6A32",
"U. c #B96739",
"Y. c #BE713B",
"T. c #D14037",
"R. c #DB4239",
"E. c #D84037",
"W. c #D0682C",
"Q. c #C26D37",
"!. c #CD7939",
"~. c #C47239",
"^. c #D2783D",
"/. c #D06F3C",
"(. c #BD7643",
"). c #C47A44",
"_. c #69832E",
"`. c #6B8235",
"'. c #6D833B",
"]. c #6E883B",
"[. c #6F8937",
"{. c #728336",
"}. c #758B36",
"|. c #72843C",
" X c #748B3D",
".X c #7A8A3D",
"XX c #79863D",
"oX c #778F35",
"OX c #6E8142",
"+X c #6E8448",
"@X c #738443",
"#X c #798444",
"$X c #748A43",
"%X c #7A8C43",
"&X c #72854A",
"*X c #778C49",
"=X c #7C8D4B",
"-X c #779245",
";X c #7C9244",
":X c #7C934A",
">X c #7B9649",
",X c #7D8C57",
"<X c #DB813E",
"1X c #E0843F",
"2X c #818D4B",
"3X c #839446",
"4X c #829B45",
"5X c #83944D",
"6X c #839A4B",
"7X c #8B914F",
"8X c #839953",
"9X c #8B9B52",
"0X c #87995D",
"qX c #8A9659",
"wX c #949C5D",
"eX c #8AA24E",
"rX c #CD844B",
"tX c #DB8A4E",
"yX c #DA864C",
"uX c #DB8C50",
"iX c #E08F51",
"pX c #E29052",
"aX c #E08C4F",
/* pixels */
"P =X@.` 3X%XU _ K ..| ) [ %X} '.6XOXP '.X.:X:X:XE E / R n n x 8 8 x x x X.%.Q ..H  .H 4X X|.>X|.|.XX) #X|.P .._ } }  . .O.&X@Xs ",
"=XE P ;X{.U O.} K +.{.@.'.O.9X} %X3X6 W E 6 O.T 8 8 8 8 8 8 8 8 8 8 8 8 8 8 8 x T ( $XU `.K ..I |  Xh +.%X' ) [ [ ! '.E $X*X+.E ",
"$X+.! 8XK U `.} } ..' | @X! X.O.&X_ |.$X%.x 8 8 8 8 8 8 8 8 l 4 y 8 8 8 8 8 8 8 0 v T O._ [ ....}.>XO.4X}...! =X} } '.! ..( ,XX.",
" .;X} +.}  .s U L XX| o.P @.qX@.| J X.n 8 8 8 8 8 8 8 8 8 S R.R.z.3 8 8 8 8 8 8 8 0 v v ^ | XX@.$X..} oX..|.P } '.K &.o.K / d P ",
"D _ [ ] `.}.G ) ..#X#X| U |.) | O.X.9 8 8 8 9 l j 8 8 8 8 g.R.R.l.5 8 8 8 j j k 9 8 0 v v v ( $X$.G oX_.`.`. .OX$X` [ +.L [ @X'.",
"} ;Xg [ O.P }  .`.2XK P '.qXJ +.m 8 8 8 8 9 Z R.k.y 3 8 8 f.R.R.l.= 8 8 l T.T.l.2 8 8 0 v v v ( ]. .eX'.&X!  ./ L P } } g g +X0X",
".X@X$X} @.#X|.O.Y P $X..#Xo.[ | b 8 8 8 8 8 A R.k.y 3 8 8 f.R.l.k.* 8 8 l T.T.l.2 8 9 0 v v v ( U -X4X[.'.-X|  Xs :X! X.! L g 0X",
"O.]. X! } @X+.}.`./ ....[ K ] m 8 8 8 8 8 8 f.l.l.2 2 8 8 k h.d.9.j 8 8 S R.R.R.5 8 8 9 v v v v Q [._.H ;X .U U $X .O.'.$.OXX.O.",
" .U } P X.$X'.-X4X`. .} K ~ m 8 8 8 8 Z j 9 k g.5 8 8 8 8 8 8 8 8 8 8 8 8 h.g.h.t 8 j S 9 v v v v ( Q  .`.`. X4XX.X./ X.} &X+.^ ",
"'.U 6 '.H ;X$X-XU %X} '.! 8 8 8 8 8 z l.4 8 8 8 8 8 8 8 8 8 8 8 8 8 8 8 8 8 8 8 8 8 A l.y 9 v v v v v O.'.].Y >X! $XX.+. .O.o.^ ",
"O.! O.+.P '.F  .K X.$X$X8 8 8 8 8 8 8 3 8 8 8 8 9 9 9 0 m S Z C > ; 2 k 8 8 8 8 8 8 j 2 8 8 0 v v v v v 6X` ;X_./  X} O.`.} O.! ",
"L $XU H  X( `.U  .`.`.n 8 8 8 8 8 8 8 8 8 c c v m M.M.m.s.s.s.s.s.e.e.q.w.: : y 8 8 8 8 8 8 9 v v v v v T L @X .+.$XP |.@X&X%.&.",
"U -X+.`./ '.D +....X .8 8 8 8 8 8 8 8 0 v b m c.s.s.s.s.i.4.4.3.3.2.*.0.e.e.e.e.2.l 8 8 8 8 8 9 #.v v v v Q '.%X X| K +.=X@.O.} ",
"2X*X} ! '.:X/ ! +.'.x 8 8 8 8 8 8 9 v v b 4 q.e.i.3.4.= = = = = = = * + + $ $ :.e.e., 8 8 8 8 8 0 c v v v T {.+.O.$X{.' _ [ } O.",
"qX&.|.] _ `.U OX%XX.8 8 8 8 8 8 0 v b b 8.e.q.# * = = = 1 3.4.6.6.4.3.& o + + + # 0.e.1.t 9 8 8 0 v v v v v E H ) } @.K @X$X|.&.",
"wXXXO.X./ ].$X].$XR 8 8 8 8 8 8 v v m 1.e.-.+ + + 4.3.i.s.s.s.s.s.s.s.s.,.$ $ + o + *.e.>.t 8 8 8 0 0 v v v #.} | ) |.&X+.$.#X&.",
"5XK '.| ..s %X|. .9 8 8 8 8 8 v v b 1.e.$ + + $ q.r.y.s.s.s.s.s.s.s.s.s.s.r.r.q.$ + + *.e.1.8 8 8 8 8 v v v v '.].OX;X| %X2X7X2X",
"&XX.O.L ) ) .. XX.8 8 8 8 v v v v 5.e.=.+ + ;.e.e.e.e.p.s.s.s.s.s.s.s.s.s.a.a.e.e.;.+ + # e.<.8 8 8 8 0 v v v T L '.+.]...@.|.[ ",
"3X .:XG X.! }. XJ 8 8 8 8 v c v v 5.e.$ + + -.e.e.e.e.a.s.s.s.s.s.s.s.s.s.a.a.e.e.;.+ + $ e.2.8 8 8 8 8 #.v 0 +X$X*X'.wX%X.XXX$X",
"_.9X$X` ]...'.U E 8 8 8 9 v v v N e.-.+ @ :.e.e.e.e.e.e.s.s.s.s.s.s.s.s.s.s.s.p.e.e.:.@ + =.e.4 8 8 8 8 0 v v Q +X`.:X>X$X[ .XI ",
"Y ` H `.F '.! +.E 8 8 8 v v v b w.:.+ + :.e.e.e.e.e.e.e.y.s.s.s.s.s.s.s.s.s.s.s.p.e.e.0.+ + :.q.8 8 8 8 8 v T T ! 9X[ :X..|.{.oX",
"_ s ;X X/ -X%X|.x 8 8 8 v v v r e.@ + ;.e.e.e.e.e.e.e.e.e.a.s.s.s.s.s.s.s.s.s.s.s.y.e.e.;.+ @ e.> 8 8 8 8 v 0 v  .|.#XU X.`. X'.",
";XOXG %X .! ;X+.9 8 8 c v b b w.;.o $ e.e.e.e.e.e.e.e.e.e.w.v.a.s.s.s.s.s.s.s.s.s.s.e.e.e.$ + -.w.8 8 8 8 c T T `.[ @.=X6X ..XY ",
"-X+.$XL L OX .`.8 8 8 c v M M e.@ + w.e.e.e.e.e.e.e.e.q.n.I.U.V.s.P.).).V.s.s.s.s.s.s.r.e.q.@ @ e.4 ; 8 8 0 v v _ X.@XL ..'.` L ",
";XU s p U @XeXL 8 8 8 v v 5.4.:.+ =.e.e.e.e.e.e.e.e.e.u.I.< O C.P.% . F.).s.s.s.s.s.s.a.e.e.*.+ ;.<.<.8 8 x v v 3Xs @X..4X..;X .",
"5X'. X . X>X/ U 8 8 8 v v q.w.*.+ 0.e.e.e.e.e.e.e.e.e.A.x.  . % * . . % ).s.s.s.s.s.s.s.p.e.q.+ $ e.e.8 8 x v v +.L =X..`._ ].'.",
"/ ;X6XO.` $X-X}.9 8 9 v m e.e.@ @ e.e.e.e.e.e.e.e.e.e.D.,   + o X + + % ).s.s.s.s.s.s.s.s.y.e.# @ e.e.y 8 9 v v h  X$Xo. X`.`.F ",
"}.`.L *XL OX} ' 8 8 9 v N q.q.+ =.e.e.e.e.e.e.e.e.e.e.r.K.% X o + + + L.S.s.s.s.s.s.s.s.s.s.e.*.o w.:.4 8 8 v v /  .XX'.3X! /  .",
"=X*X..5X+.].].|.9 8 0 #.N :.:.+ ;.e.e.e.e.e.e.e.e.e.e.e.r.K.% X o % L.D.s.s.s.s.s.s.s.s.s.s.a.;.+ :.:.; 8 8 v v | X.|.} 5X..|.} ",
"OX%.@X..p ! P `.8 8 0 0 B ;.:.+ :.e.e.e.e.e.e.e.e.e.e.e.e.y.K.& o F.T.s.s.s.s.s.s.s.s.s.s.s.s.w.+ ;.;.: 8 8 v v } Y u { #X7X@X'.",
"O.O.+.} [ @...].8 8 0 T B ;.:.+ :.e.e.e.e.e.e.e.e.e.e.e.e.y.K.% o C.S.s.s.s.s.s.s.s.s.s.s.s.s.q.o ;.;., 8 8 v v ..|.g @Xo.#XP |.",
"} ;Xf o.+.} 3X X8 8 0 v B ;.;.o q.e.e.e.e.e.e.e.e.e.e.e.e.e.y.K.C.b.p.s.s.s.s.s.s.s.s.s.s.s.s.p.o ;.-.: 8 8 v v .X=XXXO.X.d $XI ",
"K =X&._ 3X%XU U 8 8 v v B ;.;.+ 0.e.e.e.e.e.e.e.e.e.e.e.e.e.e.y.b.e.e.v.s.s.s.s.s.s.s.s.s.s.s.s.& ;.;.< 8 8 v v X.X. .`.O.&X#Xs ",
":XE U ;X{.U O. .8 8 c v B ;.;.+ q.e.e.e.e.e.e.e.e.e.e.e.e.e.e.e.e.e.e.p.s.s.s.s.s.s.s.s.V.tXaXaXtX~.~.N.8 8 c v [ ! '.E $X+X+.Q ",
"$X+.P 5XK / `.} 8 8 c v B ;.;.+ q.e.e.e.e.e.e.e.e.e.e.e.e.e.e.e.e.e.e.e.s.s.s.s.s.s.s.s.yXpXpXpXpX!.).H.8 8 v v ! I $.! ..( ,X[ ",
"} 6X .+.}  .a U 8 8 c v B ;.;.+ q.e.e.e.e.e.e.e.e.e.e.e.e.e.e.e.e.e.e.e.u.s.s.s.s.s.s.s.).).pXaXuXrXrXH.8 8 v v } h $.o.H ( d ! ",
"K _ K ] {.{.h h 8 8 c v B ;.;.+ q.e.e.e.e.e.e.e.e.e.e.e.e.e.e.e.e.e.e.e.e.s.s.s.s.s.s.s.s.P.P.P.L.U.L.N.8 8 c v |.` ! @.K ] OX].",
"O.$Xw [ O.L } U x 8 v v B ;.;.+ q.e.e.e.e.e.e.e.e.e.e.e.e.e.e.e.e.e.e.e.e.a.a.s.s.s.s.s.s.s.s.s.= 7.7.V 8 8 v v ) _ P ] a g &X0X",
":X@X&.o.|.5X+.} 8 8 v v B ;.;.+ 0.e.e.e.e.e.e.e.e.e.e.e.e.e.e.e.e.e.e.e.e.y.y.s.s.s.s.s.s.s.s.s.= 7.7.V 8 8 c b |.o.h } [ G s 0X",
"$X@XOX} } #X$.%.9 8 c v B ;.;.+ q.e.e.e.e.e.e.e.e.e.e.e.e.e.e.e.e.e.e.e.e.e.e.s.s.s.s.s.s.s.s.s.= 7.7.V 8 8 b v +...P } o.%.X.O.",
"8X+.O.$XK +.X.X.8 8 v v B ;.;.+ q.e.n.n.u.e.e.e.e.e.e.e.e.e.e.e.e.e.e.e.e.e.e.p.s.s.s.s.s.s.s.s.= 7.7.V 8 8 v v @XH  X_ P +X%.^ ",
"+X+.O.P O.`.!  .8 8 c v B ;.;.+ e.W.1X1X^.n.e.e.e.e.e.e.e.e.e.e.e.e.e.e.e.e.e.e.s.s.s.s.s.s.s.s.= 7.7.V 8 9 v v $X' _ &X`.X.o.^ ",
"`.'.! }.} X.'.|.8 8 v v B ;.;.+ 0.W.aX1X^.n.e.e.e.e.e.e.e.e.e.e.e.e.e.e.e.e.e.e.s.s.s.s.s.s.s.s.= 7.7.V 8 8 v v }.P O.X.&X! o.! ",
"%.q O.X.2XJ /  .9 8 c v B ;.;.+ y.^.^.1X<XW.e.e.e.e.e.e.e.e.e.e.e.e.e.e.e.e.e.e.s.s.s.s.s.s.s.s.= 7.7.V 8 8 v v |.L } X.X.@Xo.&X",
"-X}  X6X5X'.+.[ 8 8 v v B ;.;.+ n.<X1X<X^.I.e.e.e.e.e.e.e.e.e.e.e.e.e.e.e.e.e.e.y.s.s.s.s.s.s.s.= 7.7.V 8 8 v v @.$.+.|.X.g ( K ",
"@XD / d 6Xp +.K 8 8 c v B ;.;.+ w.~.^.!.~.A.e.e.e.e.e.e.e.e.e.e.e.e.e.e.e.e.e.e.e.s.s.s.s.s.s.s.= 7.7.V 8 8 v v | [ g W  .W p ! ",
"! G _ _ } '.} } 8 8 c v B ;.;.+ w.u.J.I.A.r.e.e.e.e.e.e.e.e.e.e.e.e.e.e.e.e.e.e.e.a.s.s.s.s.s.s.= 7.7.V 8 8 v v |.}.O.K F J f +.",
"O.O.8XI P @X0X=X8 8 x v B ;.;.+ q.e.e.e.e.e.e.e.e.e.e.e.e.e.e.e.e.e.e.e.e.e.e.e.e.y.s.s.s.s.s.s.= 7.7.V 8 9 v v K +./ G 9XXXf K ",
"J &X{ ..|.s +.K 9 8 x v B ;.;.o q.y.b.b.n.q.e.e.e.e.e.e.e.e.e.e.e.e.e.e.e.e.e.e.e.e.s.s.s.s.s.s.= 7.7.V 8 9 v v o.%X>XO.*XQ / L ",
"K ^ G  .X.w O.} 8 8 0 v B ;.;.+ q.b.Z.c.S.q.e.e.e.e.e.e.e.e.e.e.e.e.e.e.e.e.e.e.e.e.p.s.s.s.s.s.= 7.7.V 8 0 v v K ! *XD `.D &X! ",
"+X+X=X/ f e XXP 9 8 9 v B ;.;.+ q.b.1 + A.e.e.e.e.e.e.e.e.e.e.e.e.e.e.e.e.e.e.e.e.e.y.s.s.s.s.s.= 7.7.V 8 0 v v =XY '.$X$X! O.OX",
"^ f +.=Xp h &X} 9 8 9 v B ;.;.+ q.n.Z.5.J.q.e.e.e.e.e.e.e.e.e.e.e.e.e.e.e.e.e.e.e.e.e.s.s.s.s.s.= 7.7.V 9 c v v K ..$X/ D *XJ ! ",
"'.D $Xg  X .} @.8 8 9 v B ;.;.+ q.b.Z.x.V.e.e.e.e.e.e.e.e.e.e.e.e.e.e.e.e.e.e.e.e.e.e.a.s.s.s.s.= 7.7.V 8 0 v v ` / F } ]./ U '.",
"&X/ } L } $X2Xo.8 8 9 v B ;.;.+ q.n.I.I.V.e.e.e.e.e.e.e.e.e.e.e.e.e.e.e.e.e.e.e.e.e.e.y.s.s.s.s.= 7.7.V 8 c v v  .'._.p 7 / ]./ ",
"+.f  .O./ P [ h 8 8 9 v B ;.;.+ q.n.I.P.D.e.e.e.e.e.e.e.e.e.e.q.e.e.e.e.e.e.e.e.e.e.e.y.s.s.s.s.= 7.7.V 8 c v v L  .+.O./ U `.L ",
"`./ L !  .O.X.} 8 8 9 v B ;.;.+ q.e.e.e.e.e.e.e.e.e.e.e.e.e.e.e.e.e.e.e.e.e.e.e.e.e.e.r.s.s.s.s.= 7.7.V 8 c v v ( $X+XQ `.'.U L ",
" . XJ K  .+. XL 8 8 8 v r ;.;.+ q.e.e.e.e.e.e.e.e.e.e.e.e.e.e.e.e.e.e.e.e.e.e.e.e.e.e.e.s.).)./.(.Q.U.N.8 v v v |.s @...6X .;X .",
"&X].`.+. X6X/ / 9 8 9 v B ;.;.+ q.e.e.e.e.e.e.e.e.e.e.e.e.e.e.e.e.e.e.e.e.e.e.e.e.e.e.e./.aXpXpXpXrXrXG.8 v v v ..L 5X..`.U ].'.",
"_ ;X3X+. .$X-X}.8 8 8 v B ;.;.+ q.e.e.e.e.e.e.e.e.e.e.e.e.e.e.e.e.e.e.e.e.e.e.e.e.e.e.r./.aXpXaXpXrXrXG.8 v v v J  X$Xo. X`.`.F ",
"].`.L $XL $.} ' 8 8 8 v B ;.;.+ q.e.e.e.e.e.e.e.e.e.e.e.e.e.e.e.e.e.e.e.e.e.e.e.e.e.e.e.y.).).).(.(.).G.8 v v v !  .XX'.3X! /  .",
"=X*XO.5X+.].'.|.8 8 8 c B :.;.o q.e.e.e.e.e.e.e.e.e.e.e.e.e.e.e.e.e.e.e.e.e.e.e.e.e.e.e.q.s.s.s.= 7.7.V 8 v v v | [ |.} 5X..@X} ",
"$.+.@X..p / ! `.8 8 8 v B ;.;.+ q.e.e.e.e.e.e.e.e.e.e.e.e.e.e.e.e.e.e.e.e.e.e.e.e.e.e.e.e.p.s.s.= 7.7.V 9 v v v } / p [ #X7X@X`.",
"O...+.} [ ....}.8 8 8 v B ;.;.+ q.e.e.e.e.e.e.e.e.e.e.e.e.e.e.e.e.e.e.e.e.e.e.e.e.e.e.e.e.p.s.s.= 7.7.V 9 v v v +.|.h +Xo.#XP |.",
"| =Xf O.+. .;X%X8 8 8 c B ;.;.+ q.e.e.e.e.e.e.e.e.e.e.e.e.e.e.e.e.e.e.e.e.e.e.e.e.e.e.e.q.r.s.s.= 7.7.V 0 v v v .X=X|.O.X.g $XI "
};
