/* XPM */
static char *e6add9f7d13b444eecb6b78bf7d49ea1pyjSwq7FJ5nmH9mu[] = {
/* columns rows colors chars-per-pixel */
"64 64 127 2 ",
"   c #2F3424",
".  c #3E461B",
"X  c #3F511E",
"o  c #3B4222",
"O  c #42471E",
"+  c #424A1E",
"@  c #4A5B1F",
"#  c #505B1F",
"$  c #434C21",
"%  c #455322",
"&  c #4A5524",
"*  c #475923",
"=  c #4D5C25",
"-  c #4D542A",
";  c #4D5B29",
":  c #525E25",
">  c #5D572F",
",  c #535D2B",
"<  c #5A5C2E",
"1  c #484F32",
"2  c #5C5F32",
"3  c #4E6225",
"4  c #4F612C",
"5  c #536325",
"6  c #5A6525",
"7  c #556A26",
"8  c #5B6D25",
"9  c #54642B",
"0  c #59652C",
"q  c #566A2A",
"w  c #5B6C2D",
"e  c #5C7126",
"r  c #5D722D",
"t  c #5F792D",
"y  c #546432",
"u  c #5B6331",
"i  c #566932",
"p  c #5C6D32",
"a  c #5F673C",
"s  c #5E6D39",
"d  c #5E7232",
"f  c #61672D",
"g  c #626E2E",
"h  c #607426",
"j  c #62732E",
"k  c #6C762E",
"l  c #647A2D",
"z  c #69792D",
"x  c #616532",
"c  c #626D33",
"v  c #6A6B33",
"b  c #616B38",
"n  c #637433",
"m  c #6A7534",
"M  c #657A34",
"N  c #6A7C35",
"B  c #647539",
"V  c #6A753A",
"C  c #667B3A",
"Z  c #6B7C3B",
"A  c #717B37",
"S  c #717538",
"D  c #717D3C",
"F  c #677A41",
"G  c #6D7E42",
"H  c #697F48",
"J  c #727D41",
"K  c #67852D",
"L  c #69832E",
"P  c #748D2F",
"I  c #678033",
"U  c #6B8235",
"Y  c #6E8937",
"T  c #6C833B",
"R  c #6E893A",
"E  c #728336",
"W  c #748B36",
"Q  c #798D37",
"!  c #72843C",
"~  c #7A843F",
"^  c #748B3D",
"/  c #7A8C3D",
"(  c #739031",
")  c #75903B",
"_  c #79933D",
"`  c #6D8242",
"'  c #6E8448",
"]  c #738443",
"[  c #7A8544",
"{  c #758A43",
"}  c #7A8C44",
"|  c #728549",
" . c #7E844C",
".. c #768C4A",
"X. c #7B8C4B",
"o. c #779244",
"O. c #7C9244",
"+. c #779048",
"@. c #7C934A",
"#. c #7F9B4A",
"$. c #758B53",
"%. c #7D8C57",
"&. c #7D9550",
"*. c #818D42",
"=. c #81854C",
"-. c #818C4B",
";. c #839445",
":. c #829B45",
">. c #83944D",
",. c #8A944E",
"<. c #849A4C",
"1. c #889B4F",
"2. c #859252",
"3. c #839A53",
"4. c #8B9C53",
"5. c #86965B",
"6. c #8B9059",
"7. c #86995C",
"8. c #8F9F59",
"9. c #949C5D",
"0. c #86A14C",
"q. c #89A04F",
"w. c #8DA352",
"e. c #AEAC63",
"r. c #DBCD68",
"t. c #F6E191",
"y. c #FCEDCF",
/* pixels */
"w X.D n ;.} r j 0 N N g c / n ` #.` w T B &.o.@.y p M I C ..] , p X.J l ;.} r N 3 n 9 :.^ ! ;.! ! ~ g | ^ 8 m j n n M C C | ] ; ",
"X.i r o.E r C n 0 Z E A ` C 4.M / >.. u y . ` { ' d ` i ] | F i X.y w o.! r T U r R } t U 6 N 8 n Q : Z O.m g n c p T 9 ..{ Z y ",
"{ Z p >.0 r U n n N v B ] p c C ..n ` { ..! G p ` d ' Z { d %.n { Z p ,.9 d T d d { ^ ^ n B N U ^ +.V :.Q n p X.d n Z p V d %.n ",
"M } M Z n M ; j 8 ! N V p J 4.D m 9 n T i d p { @.R T C ] d ; r j 1.M C n M 3 p 7 n r ! Z m ~ D } M z _ M ! g n D p ' B w d ; p ",
"3 n c u E W 5 w N ] [ m w ] j m N T / n p U d 9 ..T R C Z V ' T 8 j u u Y N w M n ! } V 9 2.C ] Z 5 P U U N C T { M c Z 9 s G T ",
"n O., c C w n M U -.0 w T 2.9 D V 0 Q q ] 1.9 T $.&.` ` V B ` 5.B } $ c C n ~ l ..X.J -.p J U Y R M w.T { p M d 8 d p n 9 < | 7.",
"/ ^ { B D } ] N e d { N ] V c m v A w d 3 B 9 & 4 B y Z p p p X.} ] J V V [ ] T U D V C [ Z w / t O.:.Y T +.m ^ ; X.d n p q 3 7.",
"C T { w p ] Z W N d Z N c < f S S c B d r B p n T ` d n G   Z T { { ! M n { T ] V ] F M n T U j M K K q @.l r r ..M C T G ` B V ",
"n t r p B ^ U o.:.U m n 0 } x ] u [ ! T m j X.w B d T d    .  a &.` B ^ w T V ^ b ..C 0 9 C p M _ R t M U U ^ #.s M d B n | Z a ",
"T d . ` 7 @.{ o.w o.B U m M M V S Z ] { T E J m ..& d    .e.y.  ` C F r d ....+.Z w.#.! ` ! 0 7 ( K I Y T R e :.w { C Z M B F y ",
"C p B U w T 9 C w C { O.~ D m } A m V D ,.n ] [ [ C    . .e.y.y.  T d T d T 3 R 3.` ` T { 9 n l #.t } ] w.l @.K d ^ B V U n C p ",
"9 o.t 7 { s I r M N U N <.E g W ! } [ ~ [ } V ~ }    . .e.e.y.y.y.  M w { d T d $.' M ' U n @ 5 O.d d d w 9 ! M T { w T ] | C ' ",
"r O.Z U d ] = Z m / W U _ E n !  .g 6 A J ! ! 2.   . .e.e.e.y.t.t.y.  R d ` = Z I #.@.t 3.q B N 1.u 0 ^ 3 t N } Q M f N X.Z C n ",
"-...c d T O.d p T T Y Q Q I j ;.>.N *.J -.Z J   =.=. .e.e.e.y.t.t.t.t.  U #.d B d C ` 5 @.R M c M r C #.T z T Z B { A n j b n C ",
"6.] ! p l C l ` } U ] N l z X.E { ] ;.D A !    . . .e.e.e.e.y.t.t.r.r.t.          s y I t &.M T i ^ c ;.q +.p 9 n c ! 0 ] ..] Z ",
"9.~ B B p R { R { N 5 R } D z U } C ;.m g   a  . .e.e.e.e.e.t.t.r.r.r.r.t.r.r.r.r.    #.p C , { & p p . w Z [ n N g ! ] Z ` [ J ",
">.0 T m U ; / W N m ! 5 ! n V V A T } N   a  . . .e.e.e.e.e.t.t.r.r.r.r.r.t.r.r.r.r.t.  R I 5 m ] O.M l 8 #.r T T G ;.B / =.,.*.",
"{ B C 9 w g N ^ ! J T / ;.O.A c Z W n   a  . . .e. .e.e.e.e.t.t.r.r.r.r.r.y.t.r.r.r.t.y.  q n T M U N w R I T i p T Z ] m D D B ",
"@.M +.9 B p ^ ^ w / ! W L l M U U }   a  . . . . .e.e.e.e.e.t.r.r.r.r.r.t.r.r.t.r.t.t.t.y.  n n } z C p t C T ..{ +.` w.{ ~ ~ ..",
"z w.} l T U T p Z U 8 c Q U 7 l Y   a  . . . .e. . .e.e.e.e.t.r.r.r.r.t.r.r.r.t.t.t.t.t.t.y.    Y 5 T ; ) R q M ` M >.:.{ n *.8 ",
"e l 3 T 9 T p Z _ z T @ l n <.9   a  . . . .e.e.e.e. .e.e.e.t.r.r.r.t.r.r.r.t.y.r.t.t.t.t.t.t.y.  j z n M M 8 C n 3.B O.U ! E ) ",
"n 3 _ / d +.} ! k z j 6 N M n   a b  . . . .e.e.e.e.e. .e.e.t.r.r.r.r.r.r.t.y.r.r.r.t.t.t.t.t.t.t.  } j A 6 N p M D ~ d c U Q T ",
"_ ` 3 } M d o.N 6 j z ! } W p   a  . . . . . .e.e.e.e.e.e.e.t.r.r.r.r.r.t.t.r.r.r.r.r.t.t.t.t.t.t.t.    } N ! M U c D X.:.M / t ",
"+.Z ..8 9 ` M U m A U w Q l T   1  . . . . .e. .e.e.e.e.e.e.t.r.r.r.r.t.t.r.r.r.r.r.r.r.t.t.t.t.t.t.t.r.  U M Z l n ] q C Y n 5 ",
"o.d * * q ' 0.7 n Z m 5 : 8 R   1 1  . .e. . .e.e.e.e.e.e.e.t.r.r.r.t.t.r.r.r.r.r.r.r.r.t.t.t.t.t.r.r.r.  l { n X.: ] U <.N O.M ",
">.! / M / #.t d C C j [ 1.0 3   1 a 1 e.e.e. . .e.e.e.e.e.e.r.r.r.t.t.r.r.r.r.r.r.r.r.t.t.r.r.r.r.r.r. .  W ! M Z 9 X.V L r R T ",
"d #.<.Z M { o.Q U m E ! N ]     1 a a a e.e.e. . .e.e.e.e.e.r.r.t.r.r.r.r.r.r.r.r.r.t.r.r.r.r.r.t.t. .  9 r T M 5 / } C / Z T ; ",
"! I 9 { q G n l l j ~ g w   a 1 1 1 a a a e.e.e.e. .e.e.e.e.r.r.r.r.r.r.r.r.r.r.r.r.r.r.r.r.r.r.r. . .  Y n } M p M ~ U ;.p l C ",
"X...N >.Z T T W ] N ^ N   a  .1 1 1 a a a  .e.e.e.e. .e.e.e.r.r.r.r.r.r.r.r.r.r.e.r.r.r.r.r.r.t. . . .  ^ i q g m n T M >.N ] n ",
"G T ] U $ d w U p T M m   a  .1 1 1 a a a b  .e.e.e.e.e.e.e.r.r.r.r.r.r.r.r.e.e.r.r.r.r.r.r.t. . . .e.  ! Z { ! c n $ b ] >.] T ",
"C N Z B c Z N Y w l N   a  . .e.1 1 1 a a a  . .r.e.e.e.e.e.r.r.r.r.r.r.r.e.e.r.r.r.r.r.t.t. . . . .e.  = n C U Z ` , ` V [ 8 ! ",
"n +.- n Z N ;.{ B j   a  . .e.e.e.1 1 a a a a  . .r.e.e.e.e.t.r.r.r.r.r.e.e.r.r.r.r.r.t.y. . . . .e.e.  ! V m l Q -.~ C B & } g ",
"w X.J l ;.+.r w 0 N   a  . .e.e.e.e.1 a a a F J  . .r.r.e.e.t.r.r.t.e.e.e.r.r.r.r.t.t.y. . . . .e.e.e.e.  8 m j B n M C C ] { - ",
"X.i w } E r Z M 0 V   1  .e.e.e.e.e.e.a a a a a  . . .t.r.e.t.t.t.e.e.e.r.r.r.t.a a a a  . . . .e.e. .e.  k g c c p U y ..{ F i ",
"{ Z p 1.0 r U n w N   1 1 e.e.e.e.e.e.e.a a a a  . . . .t.r.t.t.e.e.e. .a a b a a a a a  . . .e.e. . .e.e.  p X.p w ] p C s 2.b ",
"d <.M V n M & w :   1 1 1 a  .r.e.e.e.e.e.a a 2 b  . . . .r.t. . . . . . . . .a a a a a  . . .e. . . .e.e.e.  g n 5 G B 8 d ; p ",
"w w 0 x U Q : :   1 1 1 1 a a  .r.r.e.e.e.e.e.F a  . . . . . . . . . . . . . . .a a a a  . .e. . . . . .e.e.  <.T l g Z 9 b J T ",
"C ..O c V w B   1 1 1 1 1 a a a J t.r.e.e.e. . .a a  . . . .t. . . . . . . . . .a a a a  . . . . .e. . .e.e.e.  g g w p ; ; | 7.",
"X.] J m Z ;.Z n   1 1 1 1 a a a a  .=.r.r. . . . .a  . .a t.t.r.b  . . . . . . .a a a a a  . . .e. . .a a     j ! V 0 c p 9 ; 7.",
"} ] ` M B { G G }   1 1 1 a a a 1 a a =. . . . . . . .a  .t.r.r.e.a  . . . . . . .a a a a  . . . . .a      .G p V U w n V ` s Z ",
"3.C C ^ 9 Z B n n l   1 1 1 a a 1 a a a  . . . . . .a a  .t.r.e.e.r.a a  . . . . .a a 1 a  . . .=.b   : c Z m ^ { q W d d ' Z a ",
"' T F q C ! p n 9 n J   1 1 1 b 1 1 a a a  . . . .a a  . .r.r.e.e.r.r.a a  . . . . .b 1 a  . . .a b   g w 8 Z ! ' z n | Z n F y ",
"I ` p Q B B T ! U y T           1 1 a a a a  . .a a a  . .r.r.e.e.e.t.r.a a a  .=.=.a 1 1 a  .2 a   Y ! : : : h W w C B | p C p ",
"F o C M >.5 d C W U } q n : j O.  1 1 a a a a a a a  . . .r.r.e.e.r.e.r.t.a a a F J a a 1 a a F   B n [ 6 8 8 8 W 0 n n B ' F | ",
"+.n ^ >.>.U Z c z M n >.T { : Z  .  1 1 a a a a a a  . . .r.e.e.r.e.e.t.r.r.a a a a a a 1 1 b   c V W N w N N g A J C ! c , B i ",
"` ; d ; @.& G 0 c N , c ] *.V c o V   1 1 a a a a  .a  . .r.e.r.e.e.r.e.e.e.r.a a a a a 1 1   S c v T ^ N N c g n b , x M u % i ",
"j 3 l l n Z n l V n r w R V N B r W V   1 1 a a a a  . . .r.e.e.e.r.e.e.e.e.e.e.a a 1 1 1 1   J =.2 N c n 5 o.^ ! / Z 9 9 3 - Z ",
"V C 3.w 8 | 5.X.0 ] g p d V I 9 ~ o.c F   1 1 a a a  . . .r.e.e.e.e.e.e.e.e. . .            b J 2.J D w e w 8 n 9 U p 5 4.~ ; 0 ",
"5 ' s M ! ; C 0 n d / : d t d p d W r M t   1 1 a a a  . .e.e.e.e.e.e.e. . .    n p ! A w } 0 V X.J g < ;.9 w B M } @.C ..y d q ",
"p s 9 n C + C n n B ! M n ^ U q 9 ^ % C d y   1 1 a a  . .e.e.e.e.e.e. . .  Z d c m D N g N D 2.! 0 9 G C ! 8 T w i ..3 U 3 ] s ",
"' ` X.d - @ ~ w D ! T ] n Z 9 M w p p { ; d _     1 a b  .e.e.e.e. . .    * ~ w ! } B ..V E w V j 6 n u T l l ; %.e T { { p C ` ",
"s * Z %.% = { B ] 9 n 8 l Y q U ! n l n l ) t r ,   a a  .e.e. . . .  ..= 5 { B | : } X.D 6 D V z : p B h l 3 r 6 N { t 3 +.4 s ",
"T 4 ..= { M n T B M q 7 w n 1.5 ^ r R 9 R I L 5 l d     a e. . .    C d p C d ^ B Z c V S g 2 y n n p n l I t n l d 3 B R t p T ",
"{ p B 8 d { X.S c n n j N N n q Z q n M B n n l U ^ I X         Z 9 _ ^ n +.>.V c d p n z 9 5 B p z 9 p ..M p ] I T M % X p R d ",
"C % M C t i c > : S j ! / W d ] 9 r } 0 [ p c 5 e M T C d w R q _ ' 5 } M d X.V 9 T n n 5 U U | B { T D X.Z d 3 q M T C d r R q ",
"T d q p M Z c n C C z g ! M T ! B n : 9 p p B ' ` ..' q C T t 3 } Z { 5 9 T M M V n T M n 5 n T 3 ; { : [ M r d d { ' i U T r 9 ",
"M ^ ; 8 M Z ^ 9 n N k : = 8 U w s n . 9 8 9 Z T = & B l q.r o.C } d * * w { 0.3 ` T t C n n 5 X.9 w } M j l { n ] * ] M <.M O.M ",
"..! T N { #.n d N V c { 1.0 7 d Z n & C p n { & d 0 @.m L r R Z @.T ^ N { #.d w d = o.s T / } 8 7 n , Z l R ! M N w ;.V U t T T ",
"r O.1.Z M ^ o.W U m E Q N [ 9 7 7 ! ! n p p ..]  .>.} V / U T 4 n @.<.N n ^ o.W R U r n { } <.w.` X.-./ 9 r Z M 5 { } B ^ Z U 4 ",
"T U 5 ..q G l l d n ~ w w n 5 U l ! Z $ $ G 5 F ^ N } T ;.p l n R U 5 ..q ] n l r 9 } n ] U Z 0 V T U l Y M O.M d M ~ U ;.p t C ",
"X...C >.Z ! T ! { N ! N { p T M C { p 7 & G d ` c M ^ n >.N ] n X...C >.U ` T W ] M _ n ! m ] w { 5 8 7 ) i q g m n ! n ,.N ! n ",
"] C ] N % d d U w T M N d I U p = p Y X.< u #.T B n $ b [ >.] ! ` C ~ N % d p T 9 Z U l  .n ..9 p r W M R V { ! n d $ c ] ,.] T ",
"Z N Z n c N N W w n N } B J } 5 T ..^ r d ; { p p .., | V [ 8 ! Z C Z B c N I Y d Q n 0 ! N n B ] r ^ r = n N Z C ] , | C [ w ! ",
"n X.- C Z n O.{ B j B -.9 w 9 M } ] ] 9 y T p T V >.~ B B - } w m +.& m Z n #.{ N l 0 # = N N 1.: n d w D V m l Q -.~ C B - } 8 "
};
