/* XPM */
static char *e77093302aaa412bd9e50c160de7cc22aoqvkis5Cc0ez7BW[] = {
/* columns rows colors chars-per-pixel */
"64 64 241 2 ",
"   c #1D1A18",
".  c #241A15",
"X  c #2C1D16",
"o  c #241E1A",
"O  c #291D19",
"+  c #321D15",
"@  c #381E15",
"#  c #2B221D",
"$  c #26211D",
"%  c #34221A",
"&  c #3A251C",
"*  c #3E291E",
"=  c #38241B",
"-  c #2C2622",
";  c #2A2623",
":  c #342A24",
">  c #3B2B24",
",  c #352D29",
"<  c #372B27",
"1  c #3B312C",
"2  c #35302E",
"3  c #3A3532",
"4  c #491E11",
"5  c #581D09",
"6  c #631900",
"7  c #6A1B00",
"8  c #671F08",
"9  c #741D00",
"0  c #7C1F00",
"q  c #59210E",
"w  c #41291F",
"e  c #4B2619",
"r  c #552110",
"t  c #582716",
"y  c #66220B",
"u  c #78240A",
"i  c #672A15",
"p  c #6F3019",
"a  c #683E1F",
"s  c #773619",
"d  c #782F19",
"f  c #442D22",
"g  c #482C28",
"h  c #4B3225",
"j  c #42322B",
"k  c #45342A",
"l  c #5C3C2C",
"z  c #543729",
"x  c #433632",
"c  c #443932",
"v  c #4A3D37",
"b  c #553C35",
"n  c #633C29",
"m  c #773324",
"M  c #3E491C",
"N  c #3A4D33",
"B  c #3D5134",
"V  c #3F5438",
"C  c #3B4222",
"Z  c #444E1E",
"A  c #7B411D",
"S  c #48472B",
"D  c #574429",
"F  c #4A5525",
"G  c #4D5C26",
"H  c #4D5B29",
"J  c #475424",
"K  c #535D2B",
"L  c #565B28",
"P  c #474734",
"I  c #53433B",
"U  c #584838",
"Y  c #425534",
"T  c #415639",
"R  c #455B3C",
"E  c #4A5B3B",
"W  c #4A5B35",
"Q  c #575534",
"!  c #66472A",
"~  c #774627",
"^  c #654232",
"/  c #694734",
"(  c #774B39",
")  c #6E503E",
"_  c #4E6128",
"`  c #526326",
"'  c #54642A",
"]  c #59652C",
"[  c #566A2A",
"{  c #5B6C2C",
"}  c #596A25",
"|  c #5E722D",
" . c #5D7528",
".. c #4C623C",
"X. c #546533",
"o. c #5C6D32",
"O. c #586836",
"+. c #5E7333",
"@. c #5E763B",
"#. c #616E2E",
"$. c #62732E",
"%. c #627A2D",
"&. c #6B782E",
"*. c #626D34",
"=. c #616835",
"-. c #637434",
";. c #697535",
":. c #657B34",
">. c #6A7C35",
",. c #64743A",
"<. c #6A763B",
"1. c #667B3A",
"2. c #6B7D3B",
"3. c #717F3B",
"4. c #5C4D42",
"5. c #574844",
"6. c #5D5148",
"7. c #4C4441",
"8. c #67574A",
"9. c #66534F",
"0. c #6D7E42",
"q. c #657841",
"w. c #717E41",
"e. c #6A6159",
"r. c #766657",
"t. c #7A7269",
"y. c #7C7A79",
"u. c #766762",
"i. c #811F00",
"p. c #842102",
"a. c #8C2303",
"s. c #8E2B08",
"d. c #932402",
"f. c #9C2500",
"g. c #9C2C07",
"h. c #9E2F09",
"j. c #962805",
"k. c #96320D",
"l. c #853C17",
"z. c #883616",
"x. c #913619",
"c. c #9A3818",
"v. c #8E261C",
"b. c #A52700",
"n. c #AB2700",
"m. c #A42B04",
"M. c #AD2800",
"N. c #AF2E08",
"B. c #AA320A",
"V. c #B1350B",
"C. c #AA3B19",
"Z. c #A13819",
"A. c #B53D19",
"S. c #B33A13",
"D. c #923629",
"F. c #AA3228",
"G. c #CA3A31",
"H. c #C1231E",
"J. c #90461B",
"K. c #A5401D",
"L. c #B44617",
"P. c #B5511F",
"I. c #8E4222",
"U. c #824424",
"Y. c #915331",
"T. c #B65A25",
"R. c #AA532A",
"E. c #966739",
"W. c #BA632C",
"Q. c #B96838",
"!. c #A0683F",
"~. c #D94138",
"^. c #C86D39",
"/. c #D37A3A",
"(. c #C66E34",
"). c #C6551F",
"_. c #906F4E",
"`. c #BB7544",
"'. c #8A7761",
"]. c #937B65",
"[. c #8A7474",
"{. c #CA7844",
"}. c #6B8235",
"|. c #6C833B",
" X c #6E8839",
".X c #728336",
"XX c #72843C",
"oX c #748B3D",
"OX c #778A39",
"+X c #6E8830",
"@X c #6E8242",
"#X c #6E8448",
"$X c #738443",
"%X c #798544",
"&X c #758A43",
"*X c #7A8C44",
"=X c #778C49",
"-X c #7C8C4B",
";X c #72854A",
":X c #7C9244",
">X c #7C934A",
",X c #799347",
"<X c #7D8C57",
"1X c #E0843F",
"2X c #DF833F",
"3X c #828D4C",
"4X c #83944D",
"5X c #839A4B",
"6X c #839746",
"7X c #889957",
"8X c #949C5D",
"9X c #8BA350",
"0X c #9B846C",
"qX c #A48B72",
"wX c #AC9277",
"eX c #B4997C",
"rX c #A3886F",
"tX c #DC8C51",
"yX c #D1854B",
"uX c #E29052",
"iX c #E18F51",
"pX c #928E8E",
"aX c #BA9E80",
"sX c #A59D9C",
"dX c #AC988A",
"fX c #BDA182",
"gX c #BBB3B3",
"hX c #ABA2A2",
"jX c #CCAD8D",
"kX c #C4A687",
"lX c #D6B593",
"zX c #DBBA97",
"xX c #CEB18F",
"cX c #E3BF9C",
"vX c #C0BBBB",
"bX c #E6C29D",
"nX c #EBC59F",
"mX c #ECC6A1",
"MX c #EFC9A3",
"NX c #EDCBAC",
"BX c #DFC0A5",
/* pixels */
"{ -X3.:.6X*X{ { ] >.>.#.*.oX;.@X>X$X| |.,.>X>X,XX.X.o.X.W Y B B B B T W @.1.o.:.` | [ 5XoX|.6X3.XXOX#.;XXX{ >.$.-.-.:.:.1.;X&XG ",
"-XX.| *X.X| 2.:.{ 2..X3.w.1.5X,.*X>XM X.K Z @Xq...B B N N N N N N N N N N N W ..X.|.:X| }.} >.{ ;.OXL 2.:X;.#.$.*.o.|.X.&X;X0.X.",
"&X2.o.4X] | }.,.-.>.;.*.$Xo.;.1.%X-. X&X;XO.Y N N N N N N N / D.D P N N N N N B R ..@.&X$.,.>.>.OX,X1.6XOX&.{ -X+.o.3.o.:.@.<X*.",
":.*X:.2.$.:.G  .} .X>.<.#.w.7X3.;.' ,.,.Y N N N N N N N N ^ ~.~.F.D N N N N N N V R R ..<.;.OX3.&X>.:.OX:.XXo.-.XXo.@X<.] +.H { ",
"_ $.*.=.}. X` #.>.XX=X;.{ $X#.;.;.|.@.N N N N P / D N N N D.~.~.G.m N N N U / Y N V R R V #X}.@X|.` +X}.}.}.}.@X&X:.*.2.[ *.$X@X",
"-.:XK #.>.{ ,.:.}.3X] { |.7X` 3.<.K Y N N N N ( ~.F.D N N D.~.G.G.n N N N F.G.n N N V R R R @.|.XX:.9X|.&X+.:.+.{ { +.-.K K #X7X",
"oX$X&X,.3.*XXX>. .{ $X>.%X<.*.;.] N N N N N N D.~.F.m B N P F.H.v.z N N z ~.~.D.N N N R R R R |.| ,X,X+X|.,X,.oXG *X+.-.o.' K 7X",
"1. X&X{ *.$X2.XX>.-..X;.*.L =.O.B N N Y / P N D D.m P B N N N N N N N N N D.F.z N Y U V R R R R O.+X+X[ ,X:.} | &X1.1.|.0.#X,.1.",
":.+.| o.,. X2.,X6X}.;.-.' *XQ T N N N Q G.D N N P N N Y N N N B N N N N N N S N N / G.S V R R ....@. .}.}.}.oX>X@.,.+.,.;.;X2.O.",
"|.| M |.[ :X&X:X{ :X-.|.;.+.B N N N N N l N N N N B T E Q ! / m A a D S S N N N N P n N N R R 7.V ..@. X X X .:Xo.XX,.2.:.1.q.X.",
":.o.1.2.| |._ :.{ 1.&X:X$XW N N N N N N N N V R R Q ~ I.K.C.A.A.S.M.M.b.k.s D N N N N N N B R R R R ..;X9X| :X+X-.oX1.1.|.-.1.o.",
"' *X| [ XX@.|.| :.:.}.}.q.N N N N N N B B R R ! I.A.L.C.Z.x.z.z.z.z.p.d.f.b.n.k.n N N N N N V R R R R X.{ { &X:.|.&X] |.$X=Xq.w.",
"| :X2.}.+. XG 2.>.OX X+XY N N N N N B R E E A m.N.Z.z.d m p p p p p y 6 7 0 a.n.b.s S N N N N R R R R .._  .|.*XXX;.{ ;.*X2.1.,.",
"4X;X-.o.|.:X+.o.|.XX}.,.B N N N N V R R Q k.M.d.9 i p d m t e e t p d u 7 6 6 7 d.n.g.S N N N N R R R R ,.$.}.2.1.&X.X;.$.*.:.;.",
"7XXXXXo.$.2.%.#X*X}.XXW N N N N V R R Q k.b.p.6 5 y t h g / 4.Y./ z g e i 8 7 6 6 p.b.k.S N N N V R R R ..&Xo.' $.;.XX] $X=X@X2.",
"8X%X,.,.o. X&X X&X>._ B N N N B R 7.Q h.b.9 6 6 8 r g n m 9.Y.8.Y.8.( b < f 8 p.7 6 9 b.h.S N N N R R R R ,.%X-.:.{ |.%X2.w.%Xw.",
"4X] |.;.>.G :XXX>.;.,.N N N N V R R ~ b.a.6 6 8 f z / ^ ^ / ( Y./ ^ ^ / / / g @ 8 6 6 a.b.s N N N V R R ..#X| |. X|.>X;.*X%X4X3X",
";X*.1.] { #.;.OXXXw.O.N N N V R E Q m.d.6 6 8 : l n l l l l / ^ ^ ^ n l l n ^ l & u 7 6 d.b.D N N N V R V @.|.X.o.|.3.&X;.XX3.;.",
"4X%.:X` ,.o.oXoX{ OXW N N N R R E k.b.6 6 p.4 f z z z h l l n l l z z z z l l z f r d.7 6 f.h.N N N V R R ..|.&X#X=X|.9X%XOXOX%X",
"}.7X:X%.XX:. X| 2.+XY N N B R R ! n.u 6 p.r % f h f f f g h z z z h h f h g w f & X y p.6 9 b.s N N N R R ..{ :.@X}.>X>X*X$.3X{ ",
" .%.` |._ |.o.2.oX%.Y N N V R Q k.d.6 0 y % * f f > = w f f g f f w w & = & w & = % . u i.6 d.n.S B N V R ..{ >.-.4X*.>X>.XX.XOX",
"%.` oXoX+.>X&XXX&.&.N N N R R Q m.9 6 f.+ % & & = % + = > 4 w f & = = = % = % = % + . 4 b.6 9 n.a N N V R R :.o.>.XX%X+.-.|.OX}.",
":X#X` *X:.+.:X2.` &.B N B R Q A b.6 0 f.. % % % + X X + + @ f > & % + % % + % + % X . X M.i.6 d.k.S B B R R |.:. Xo.XX-X5X:.:X .",
":X2.&X` { @X:.}.-.XXN N B R Q k.a.6 d.u . % X X X . o O O + + + % + % + X X X X X O X . p.f.6 9 m.D N B R R :.|.$.*.XX[ 1. X| ` ",
"oX+.G J | @X5X[ :.}.B N B R ! b.9 9 b.4 X X X . # I 8.# . O X + X X . . . # # . . X X . i b.9 6 b.! N N R ..&X$.4XG $X>.5X:.:X}.",
">XXX X}.:X>X+.| 1.2.N N T R ~ b.9 u b.@ . X X . U rXeXr.: . . X X . . . > r.r.# . . X . e b.0 6 d.s N N R R XX:.>.' 3X>.+X{  X|.",
"+.,X5X1.:.XX:XOX}.;.B N T R A f.7 a.d.+ . . ; 5.eXbXmXbXaXx O   . O x 0XjXnXzXeX'.: . . = h.d.6 a.s N N R R |.,.` *X*X<.oX|.1._ ",
"XX}.[ =X[ |.-.%.| $.B N T R l.f.7 d.a.X . o 6.kXnXnXmXMXnXaX'._.r.'.eXbXbXnXMXnXzX8.. . + c.j.6 a.z.N N R R *X:.+.:..X|.6X{ :.,.",
"-X=X;.4X|. X XXX%X}.B N T E l.f.7 f.d.+ . < 0XkX0XwXzXmXmXbXlXjXkXzXcXMXnXzXwXqXkX0X-   + c.h.6 p.z.N N R R {  .;.-. X1.4X>.XX,.",
"@X|.$X:.J o.{ }.{ |.B N V E l.f.6 f.d.@ . 8.kX4.U U U rXlXMXMXMXMXMXMXzXrX) I Q U aXP . + I.L.i a.z.N N E R %XXX*. .S =.w.4X%XXX",
"1.>.2.;.*.>.>. X| -.N N R R l.f.6 f.f.@ . '.lXr.t.9.k 4.].fXnXMXMXcXkX].I x 6.t.e.lX8.O > Q.yX/.W.Y.N N T R 2.}.2.|.K $X<.%X} XX",
",.*XF 1.2.,.6X&X-.+.N N R R l.d.7 f.d.+ o 0XmXe.pX4.+ v 4.lXmXMXmXmXzX8.x % b sXe.cXr.- : `.iXiX2XE.N N R T ;.%.oX3XXX1.,.K *X} ",
"{ -Xw.%.6X:X{ $.{ ;.B N T R l.f.6 f.p.1 ; wXmXe.hXr.1 [.pX].MXMXmXMXwXy.u.g 9.gXe.BX]., # !.tXtX{.E.N N V R >.$.-.-.:.1.1.;X%XH ",
">XX.{ :X.X| 1.:.' 2.B N R R l.f.7 b.f.t ; 0XzX'.hXgXhXgXy.aXMXMXcXmXjXu.gXhXgXpXr.zXe.$ z R.W.E.Q.Y.N N R E #.-.o.o.|.] &X&X2.X.",
"%X2.o.4X] { }.-.#.;.N N R R l.f.6 b.n.j.% I qXeXe.pXsXy.r.BXMXMXMXmXcX'.y.sXpXe.wXqX1 = c.A.C.p z.I.N N T E =.=Xo.{ w.o.1.@.<X+.",
"+.5X:.2.-.:.F | L .XB N T R l.d.6 f.M.M.u # # r.aXqXrXjXbXcXzXlXzXcXcXMXkXqXwXjXqX# # d L.A.C.p x.D.N N R E { $.-.' w.,.] +.H o.",
"{ { ] =.}.XX` G ;.XXY N R R l.f.7 b.n.M.b.r % f v 4.eXlXlXjXjXjXxXjXjXzXzXxX'.I < # t Z.A.A.C.p x.I.N N V R }.6XXX%.o.2.' *.0. X",
"1.=XZ =.;.{ ;.| }.4XN N R R l.f.6 f.M.S.L.j.e # - > I 8.'.aXwXrXrXeXfX].r.4.j : # % x.C.A.A.C.p x.I.N N R R %.XX#.#.{ o.F K ;X7X",
"*X$Xw.;.2.4X|.,.,.o.N N T ..l.d.6 m.).1X1X(.x.X X X < f : : v v I x : : j > O X e Z.A.A.A.A.C.p x.I.N N R ..|. ..X<.] #.o.' H 7X",
"*X%X|.,.-.%X0.2.&X$.N N T R l.f.7 B./.1XtX/.T.p.q : ; o o + - # : = : # o o o i Z.A.A.A.A.A.C.p x.I.N N R R |.o.1.}.#.,.<.q.,.q.",
">X@X:.&X] 2.,.,.$.-.N N Y R l.f.6 C./.1X1X2XW.j.4 I 3   ; .   ; # o .     , 7.t c.A.A.A.A.A.C.p x.I.N N R E ,.OX%X[ oX$.{ #X0.O.",
"#X@X|.[ 1.}.+.+.[ -.B N R R l.f.6 m.W./.2XQ.W.q k 9.: : 6.e.$ v I ; 7., v < 9.j e C.A.A.A.A.C.p x.I.N N ..T }..X#X&.$.;X|.-.q.X.",
"}.|.o.oX,.,.|.XX}.] B N V R l.d.6 b.V.T.W.P.u > 1 x < c 2 v 7.3 ; 6.u., v < x , : p C.A.A.A.C.p z.I.N N R R L  .+X{ 1.,.;Xo.,.o.",
"q.C 1.,.3X` +.:.oX}.B N R R l.f.7 f.M.N.M.j.a dXe.2 j 5.7.v 2 ; 7.6.3 3 I 1 , u.rX8.c.A.A.A.C.p x.I.N B R R #.} OX{ ,.-.;.;X1.;X",
",X+.oX5X4X|.2.$.$.>.B N T R l.d.7 f.V.P.P.z./ MXBX4.j b 5.5.; ; , 3 v b b 1 8.NXNX_.v.A.A.A.C.p x.I.N B R R >.$.3.w.<.XX*.K ,.X.",
"$XH +.K 4XJ 2.] o.;.N N T R l.f.6 b.L.J.J.R.i eXrXv < : < 3 ; $ , x 1 : : > I jXkXz Z.A.A.A.C.p x.I.N B R R -.#.;.*.K *.1.X.J o.",
"+._  . .,.|.-.-.2.-.B N V R l.f.7 f.L.s 6 T.s.D v : : 1 g < $ ; 2 , < < : - : 4.U p.A.A.A.A.C.p x.I.N B R R :XXXXXXX>.' ` K F 2.",
"1.;.7X{ { $X7X-X] %XN N B R l.f.7 f.L.R.J.T.M.n.u @ x x : - ; 2 3 ; : ; o o @ d.n.N.A.A.A.A.C.p x.I.N V R R } $.' |.+.' 7XXXH ] ",
"` ;XO.1..XG 1.] ,.{ B N B R l.f.7 f.S.R.J.W.M.M.u = c I v x 3 3 3 v 7.x - ; + d.M.N.S.A.A.A.C.p x.I.N B ..V | +.:.*X,X1.=XX.+.[ ",
"o.O.' ;.-.Z 1.,.-.;.B N B R l.f.6 b.S.W.W.P.N.M.u % , : < ; < j < x < 3 o ; + s.M.M.V.S.A.A.C.p x.I.N V V ..[ |.{ o.=X` }._ &Xo.",
"#X@X>X+.H G XX{ 2.|.N N B R l.f.6 f.M.N.B.N.M.M.p.4 o O % < o o o o # # o o 4 d.M.M.N.S.A.A.C.p z.D.N V R R }.F <X .|.&X&X+.1.@X",
"O.F 2.-XJ G ;X;.%X[ B N B R l.d.7 b.M.M.n.M.M.M.m.d.+ > > > # + @ # : % : O a.b.M.M.M.G.^.^.{.Q.Q.E.B V R R _ | ' >.oX+.` =X' O.",
"@X_ &XH &X:.-.XX;.:.N N B R l.f.6 b.n.M.M.M.M.M.M.M.8 r q r q u 0 r r q q 8 n.M.M.M.M./.tXiXiXuXyX_.N R R R | :. .| _ -.|.+.| |.",
"&X+.-.{ +.&X3X<.o.-.B N B R l.d.6 b.M.M.M.M.M.M.M.M.M.M.n.n.M.M.n.n.M.n.M.M.n.M.M.M.N.^.tXtXtXtXyX_.N R R R +.@X}.}.}.B M +. X+.",
"1.F :.1.+.{ =.L K 2.N N N R l.f.7 f.M.M.M.M.M.M.M.M.M.M.M.M.M.M.M.M.M.M.M.M.M.M.M.M.M.S.^.{.{.`.^.E.B R R R +.` [ :.|.1.+.+.|.[ ",
"|.+.' +.:.|.*.-.;.<.B N N R l.f.6 f.M.M.M.M.M.M.M.M.M.M.M.M.M.M.M.M.M.M.M.M.M.M.M.M.M.N.S.A.Z.p x.J.V R R R | +.+.&X@X{ 1. X .[ ",
":.oX` ] :.2.oX' ,.;.B N N R l.d.7 f.M.M.M.M.M.M.n.M.M.M.M.M.M.M.M.M.M.M.M.M.M.M.n.M.M.M.S.A.C.p l.I.V R R E &X$.$XG XX>.5X:.:X1.",
"%X|.|.}.oX5X+.+.1.>.B N N W l.f.7 f.M.M.M.n.M.M.M.M.M.n.M.M.M.n.M.M.M.M.M.M.M.M.M.M.M.M.N.A.C.p x.U.V R R R XX:.:.{ -X>.}. .|.|.",
"+.:X5X>.:.&X:X+X}.>.B N N R l.f.7 f.M.n.M.M.M.M.M.M.M.M.M.M.n.n.M.M.M.M.M.M.M.M.M.M.n.n.N.A.C.p x.I.B 7.R R 2.:.` %X&X<.oX2.|._ ",
" X}.' =X[ @X:.%.| -.B N N V l.f.6 f.n.b.n.n.n.n.n.n.n.n.n.n.b.b.n.n.n.n.n.n.n.M.n.n.n.b.N.A.C.p x.I.B ..R R :X:.+.:.oX|.6X{ :.:.",
"-X=X1.4X>. X@XXXoX>.B N N R l.d.6 6 6 6 6 6 6 6 6 6 6 6 6 6 6 6 6 6 6 6 6 6 6 6 6 6 6 6 6 p p p x.I.V ..R R { #.<.-.XX1.4X>.%X-.",
"@X1.XX2.J o.o.}.{ XXN N N T l.f.6 6 6 6 5 6 6 6 6 6 6 6 6 6 6 6 6 5 6 6 6 6 6 6 6 6 5 6 6 i p p x.I.V R R R &XXX*.{ J =.w.4XoX|.",
"2.1.2.,.*.>.}.|.{ ;.B N N T l.n.b.b.b.b.b.b.b.b.b.b.b.b.b.b.b.b.b.b.b.b.b.b.f.b.b.b.b.b.b.B.C.C.L.I.V R R R 2.}.>.$XL $X1.%X{ 3.",
";.:XF <.|.;.:X&X;.| B N N T A h.h.h.h.h.g.g.h.h.h.h.g.g.h.h.h.h.g.g.h.m.h.h.h.g.g.h.h.h.h.h.K.K.K.U.V R R E ;.%.OX-XXX1.,.F *X#."
};
