/* XPM */
static char *player1685612118[] = {
/* columns rows colors chars-per-pixel */
"64 64 232 2 ",
"   c #1D1916",
".  c #1D1B19",
"X  c #181715",
"o  c #221712",
"O  c #241914",
"+  c #2C1D16",
"@  c #221D1A",
"#  c #2B1D19",
"$  c #301F17",
"%  c #301F18",
"&  c #1F2019",
"*  c #24221D",
"=  c #2B221D",
"-  c #292B1D",
";  c #27281D",
":  c #34221A",
">  c #3A251C",
",  c #3F291E",
"<  c #2F341D",
"1  c #34391E",
"2  c #2B2522",
"3  c #2D2924",
"4  c #292725",
"5  c #332722",
"6  c #342A25",
"7  c #3B2C24",
"8  c #332D29",
"9  c #3B2E29",
"0  c #3D2726",
"q  c #2E3121",
"w  c #313621",
"e  c #353A23",
"r  c #35312D",
"t  c #3C332D",
"y  c #3A3D27",
"u  c #3B3532",
"i  c #393836",
"p  c #412A1F",
"a  c #452D21",
"s  c #482F23",
"d  c #482B29",
"f  c #552D2D",
"g  c #4A3124",
"h  c #44322B",
"j  c #4A342B",
"k  c #47352A",
"l  c #523629",
"z  c #56392B",
"x  c #5B3C2D",
"c  c #513527",
"v  c #453B34",
"b  c #4A3B34",
"n  c #473A36",
"m  c #553B35",
"M  c #613131",
"N  c #603F2F",
"B  c #3C441C",
"V  c #35411F",
"C  c #3F511E",
"Z  c #3D4324",
"A  c #3E4823",
"S  c #42491E",
"D  c #4C5A1F",
"F  c #434C23",
"G  c #414C2A",
"H  c #45492B",
"J  c #465222",
"K  c #4A5525",
"L  c #4D5C25",
"P  c #4A552A",
"I  c #4D5B29",
"U  c #475428",
"Y  c #535E25",
"T  c #535D2B",
"R  c #5C5A2D",
"E  c #4B423C",
"W  c #52433C",
"Q  c #59433C",
"!  c #554B3E",
"~  c #5A4336",
"^  c #4E5732",
"/  c #575D33",
"(  c #654232",
")  c #6A4534",
"_  c #714937",
"`  c #744938",
"'  c #7A4D3B",
"]  c #7F503D",
"[  c #4E6128",
"{  c #536326",
"}  c #556A26",
"|  c #5C6C25",
" . c #54642B",
".. c #5A652C",
"X. c #566A2A",
"o. c #5B6C2C",
"O. c #5A6525",
"+. c #5D722D",
"@. c #5D7428",
"#. c #556432",
"$. c #5B6331",
"%. c #5C6D32",
"&. c #5A6A37",
"*. c #5E7232",
"=. c #626E2E",
"-. c #61672D",
";. c #62732E",
":. c #647A2D",
">. c #67772C",
",. c #616533",
"<. c #626D33",
"1. c #636D39",
"2. c #6A6B33",
"3. c #637433",
"4. c #6A7534",
"5. c #657A34",
"6. c #6A7C35",
"7. c #647439",
"8. c #6A753A",
"9. c #667B3A",
"0. c #6B7C3B",
"q. c #717D3B",
"w. c #727538",
"e. c #474241",
"r. c #5A4B43",
"t. c #594A45",
"y. c #5C5247",
"u. c #585756",
"i. c #654745",
"p. c #6D5D4D",
"a. c #645347",
"s. c #675653",
"d. c #765C5A",
"f. c #72564D",
"g. c #6D7E42",
"h. c #6A7B45",
"j. c #727D42",
"k. c #6A615C",
"l. c #746352",
"z. c #7A6758",
"x. c #777574",
"c. c #726B69",
"v. c #81513E",
"b. c #836E59",
"n. c #84725D",
"m. c #8A745F",
"M. c #947D66",
"N. c #8E7B79",
"B. c #917F7A",
"V. c #8A7660",
"C. c #855340",
"Z. c #6A822E",
"A. c #67852D",
"S. c #6B8234",
"D. c #6E8937",
"F. c #6D833B",
"G. c #6E883A",
"H. c #678033",
"J. c #728336",
"K. c #748B36",
"L. c #72843C",
"P. c #748B3D",
"I. c #798C3E",
"U. c #7A853F",
"Y. c #79933D",
"T. c #769137",
"R. c #748D2F",
"E. c #6E8142",
"W. c #6E8448",
"Q. c #738442",
"!. c #798544",
"~. c #758A43",
"^. c #7A8C44",
"/. c #768B4A",
"(. c #7B8C4B",
"). c #76854A",
"_. c #7C9244",
"`. c #7C934A",
"'. c #799446",
"]. c #7B8B57",
"[. c #859A3E",
"{. c #818D4C",
"}. c #808B46",
"|. c #829445",
" X c #829B45",
".X c #83944D",
"XX c #849A4B",
"oX c #89974E",
"OX c #859253",
"+X c #8A9B53",
"@X c #879959",
"#X c #949C5D",
"$X c #8DA352",
"%X c #85A04B",
"&X c #9B846B",
"*X c #9B846B",
"=X c #82807F",
"-X c #A3876D",
";X c #A58C73",
":X c #AD9478",
">X c #B69B7E",
",X c #B5997C",
"<X c #8A8988",
"1X c #9F9E9D",
"2X c #BB9F81",
"3X c #B79D80",
"4X c #A39797",
"5X c #BEA283",
"6X c #BEA794",
"7X c #B9B7B6",
"8X c #A5A4A4",
"9X c #C09E80",
"0X c #CBAD8C",
"qX c #C4A686",
"wX c #D4B491",
"eX c #DCBA96",
"rX c #DDBD99",
"tX c #D9B693",
"yX c #D0B190",
"uX c #E2BE9A",
"iX c #CBB3A0",
"pX c #E5C29D",
"aX c #E9C49F",
"sX c #EBC6A1",
"dX c #EFCAA3",
"fX c #EBC9A6",
"gX c #ECCCB1",
"hX c #F0D1B6",
"jX c #CAC8C8",
"kX c #D1CECE",
"lX c #D9D9D9",
"zX c #F6DAC6",
/* pixels */
"o.(.q.3.|.^.+.=...6.6.=.<.^.3.G.`.Q.o.G.7.`.'.`.#.&.H.H.9.).).I o.(.j.:.|._.+.6.[ :. . X^.F.|.L.L.U.=.).P.o.>.;.3.7.5.H.9.).).I ",
"`.#.o._.J.+.9.9...6.J.q.E.9.+X3.^.|.B #. .F E.~.E.*.E.#.E.~.0.&.`.#.+._.q.+.9.F.+.F.^.@.S.O.6.o.3.P.Y 6._.4.=.3.<.%.F.#.~.~.0.#.",
"Q.F.*..X .+.F.3.3.w.>.1.Q.%.7.8.~.3.L.~.).L.E.*.E.o.W.E.~.7.].3.~.0.*.OX .+.H.*.*.~.~.J.>.4.5.S.K.`.0. XP.>.$./.*.3.0.%.9.*.].3.",
"5._.3.0.3.5.L ;.X.K.6.8.o.j.+X0.4. .7.F.&.*.&.G.`.G.F.9.E.*.I %.*.XX5.9.3.5. .*.X.5.@.L.g.4.U.0.^.5.>.I.9.J.<.4.J.&.E.7...*.I %.",
"[ ;.3.$.J.J.{ | 5.U.(.4.+.Q.>.3.4.L.^.3.*.F.*. ./.F.E.F.9.h.E.G...;.o.,.S.S.o.6.7.Q.^.8. ..X9.~.g.{ R.H.H.F.H.G.^.3.<.0. .&.Q.G.",
"3._.T %.9.+.3.9.S.{. .-.F.OX .q.8.O.P.X.Q.XX .E.].`.E.~.7.3.E.@X9.!.F %.9.3.U.:.~.^.Q.{.,.j.F.F.P.*.$XF.~.%.3.*.X.o.3.3. ./ W.@X",
"I.E.~.7.q.!.L.9.@.o.~.9.!.8.1.4.2.6.%.*.{ *. .J #.*.#.9.&.o.*.(.^.Q.Q.8.6.U.Q.F.9.q.7.6.^.9.+.K.@.`.'.T.F.'.4.~.L `.*.3.&.#.T @X",
"9.G.^.o.3.Q.0.K.S.*.6.6.<...,.2.w.<.9.*.+.7.%.3.F.E.*.[ H 3 * . ; e ^ %.3.).F.Q.0.L.h.9.<.F.H.;.A.A.A.X.'.5.o.@.~.5.9.F.j.E.*.0.",
"5.;.*.%.3.G.F.'. X6.5.<...^.,.Q.$.!.J.F.6.o.^.o.%.G - = l ( ` ' _ z 7 @ ; U <.Q.&.'.9.$. .9.<.5.Y.G.@.5.S.S.~. X*.9.*.4.7.Q.g.&.",
"F.+.B G.X.'.^.~.o._.4.0.6.9.9.4.w.0.Q.~.q.L.7.< . h ( v.v.v.v.v.v.v.' _ x 7 @ w #.+XXXE.j.L...X.T.A.H.K.F.D.@._.%.W.9.9.5.7.h.#.",
"9.%.9.9.+.0. .5.o.9.P._.!.q.3.I.q.8.8.q.oXP . h ) _ ` ) ) ' v.v.v.` ) _ ` _ ( z * q &.G.~. .:.5.'.A.~.).$X:._.A.*.P.3.9.F.*.7.%.",
" .^.+.} ~.7.F.+.5.9.S.S.XXJ.=.K.L.^.!.K./ @ x ) ( ( x N ) ` v.' _ ( ( ( ( ( ` ( ( 5 . &.D.:.J D _.*.*.3.X. .~.5.F.^.o.E.Q.~.h.E.",
"+._.9.S.*.G.I 9.6.I.T.A.I.J.4.J.).-.O.$.@ z ( ( N ( l x x ( _ ( ( ( ( ( ( ( x x ( ( g * `.} 9.9.%X$.o.P.[ @.F.^.P.3.o.q.^.0.9.7.",
"`./.4.%.J.'.*.*.0.F.J.P.T.Z.3.|..XF.U.= > x l x x l l ( x x N N x x x c l x ( ( ( ( x 5 e G.3.3.*.*.9.`.P.;.H.0.9.P.J.3.3.<.7.9.",
"OXq.0.<.+.9.+.E.^.S.L.6.;.Z.(.J.P.Q.G . , s g g g p p g x x N N z l z c s s s g g g , a @ A 9.F.#.U.3.`.+.~.&.O.<.4.J...Q.~.F.0.",
"#X~.9.7.*.P.~.L.~.S.{ Q.^.q.>.S.^.I @ > s g s a g a g g s s s l c s s p p s g p > a a : +   Z ^.K 3.o.B o.0.!.3.6...F.).0.j.!.j.",
"OX..F.6.6.L _.J.6.4.L.{ L.7.4.0.4.* > p s p p s , : s s s p s s p p p p p > : p p p p : : + * 5.P.'.5.:.X.`.+.G.F.0.}.4.^.!.oX}.",
").7.9.X.o.-.6.I.J.j.F.I.|._.q.<.G o p p a p , > : : p p p p p p p p p p : : : : > : : : : O    .3.S.5.+.G.H.G.&.+.F.0.~.6.q.q.8.",
"|.9.'. .7.&.K.~.o.I.q.K.R.:.5.9.* O > : : : : + $ : : p p p p p p : $ : > > : : : > : : : + o 1 '.>.9.$.+.F.F.~.~.'.E.+X~.U.U.~.",
"Z.+X^.@.F.Z.F.*.9.6.@.;.K.5.} }   O : $ : $ : = + $ + $ $ > p > p : > $ $ $ $ $ $ $ : : + : o & S.} F.[ P.G.o.5.E.9.`. X~.4.I.o.",
"@.@.} F. .F.&.0.I.>.J.D +.;.XXV o $ : + $ + + o O + + + : % : % $ $ $ $ : : + = $ $ + + + : o X  .;.>.3.5.5.X.6.*.oX<.`.H.J.K.P.",
"3.L _.T.*.'.^.J.>.4.;.o.S.6.3.* o + : $ + o o   . o O + $ : : : $ $ $ $ = O + O O o O + : + + o < [.^.3.6.o.6.%.5.L.!.+.1.F.P.S.",
"Y.E.{ ^.5.*.'.6.O.>.>.J.^.K.#.. O = = + O O 6 m.&X! . O O + + + $ $ $ o O O O t 3   o O o + = O * P.J.q.!.6.J.5.F.<.q.(. X5.Y.;.",
"'.F.~.} #.E.5.S.3.L.S.=.I.:.I   o + : O O X *X0XeXqXz.O o O O O o + o o O . ! >X:Xy.@ o + O + O   J ^.L ^.F.6.6.;.3.Q.o.9.F.:.{ ",
"~.*.K J %.Q.%XX.7.S.4.{ Y | A   o $ + o . p.0XdXdXdXtXm.@ o O o o o   * p.*X0XdXuX>X-X! . O O o   F ^.9.+.:.~.>._.L Q.6. X5._.9.",
".XG.~.H.T.`.*.*.5.9.>.!.oX..1   o o o w M.>XaXdXaXsXdXtX-X~ 4 X o O k -X0XeXdXdXdXdXwX>Xa.@ O o   F Y 9.H.D.L.9.F...{.6.S.@.D.F.",
"3.`.XX9.:.~._.K.S.6.q.J.6.!.<   O o * ;X0XaXdXaXdXdXdXdXuXqX,X-X&X:X>XuXdXdXuXdXdXdXdXpX:X= O o o H .XP. .o.0.5.{ P.^.7.I.9.F.I ",
"K.H.X.~.X.E.3.:.;.3.U.o.X.6.< o O . r.0XuXm.a.-X>XdXaXdXdXuXuXuXwXuXdXdXdXdXdXqX;Xa.V.qXyXy.  o   e S.:.D.5.`.5.%.9.U.F.|.%.:.9.",
"(./.6..X0.L.F.P.~.6.K.9.~.%.G   O   V.pXt t E 5 O M.sXdXdXdXdXdXdXdXdXdXdXaX,X+ = j k = yXM.  o   < | } ^. .X.+.8.<.G.6..X6.U.*.",
"E.9.~.6.J &.%.H.o.F.6.6.*.5.P   o   :X0X:X*Xz.n.m.f.j 0XdXdXsXdXdXdXdXdXuX~ _ b.V.z.*X3X>XqX. o o e K.6.J.0.~.J.3.;.F &.!..X~.F.",
"0.9.0.3.<.0.S.K.o.3.6.^.9.j.&.  o . 0XdXa.k.x.0 : = z.m.M.tXdXdXdXdXeXM.n.m.3 * 0 k.x.y dXyXt   . A ~.o.L 3.0.6.9.L.T E.8.!.X.q.",
"7.'.K 7.0.3.|.P.7.;.3.{. ...- . o 8 wXdXw kXN.f O d 8 ! aXdXdXdXuXdXdXdXl.5 d @ d d.lXi uXwXW   . < +.+.L.8.4.:.P.{.U.9.7.L ^.=.",
"o.(.0.:.|.'.+.o...6.6.=.%.I.. n . H eXdX3 jXB.f # f =Xc.l.aXdXdXdXuXdXM.y.4XM # d d.kXi rXrXa.  @ . -./.G.o.6.;.4.3.H.H.9.).~.L ",
"`.#.*._.J.+.9.9. .0.J.0.E.9.y h X z.eXdXt.1XjXf.M i.jX8X! dXdXdXdXdXuXb.=XlXf.M i.7X7Xr fXuXn.X 2 w K 6.|.>.=.<.%.&.F.#./.W.0.#.",
"~.0.%.OX..o.H.4.=.6.2.4.Q.%.<.e . 4 5XpX:Xi jXlXkXlXjXi 5XsXdXsXuXuXdXuX8 7XlXkXlXkXu.m.fX:X4 X w ^.7.T.T.4.$.(.%.=.0.$.9.*.].3.",
"*.XX3.0.>.9.L o.Y q.6.8.o.E.@X0.y . t 5XfXV.i x.<Xx.r *XdXdXdXsXdXdXdXdX3Xr c.<X<XZ p.sX2X4 = Z _.6.J.S.L.P.o.=.3. .Q.7...*.I %.",
"o.;...$.J.J.Y Y 4.U.OX4.=.Q.=.6.... 2 @ p.dX0Xz.p.V.tXdXsXpXpXeXrXrXsXdXfXuXB.p.z.>XdX5X3 6 @ *.3.{ |.3.L.=.A.XXJ.:.%.0. .&.j.E.",
"9.).S <.9.o.3.*.S.{.T o.F.OX .q.8.1 @ j * E *XrXdXdXfXsXyX0XyX0X0X0X0XyXpXfXdXdXdXrX*X4 = @ q I._.L.3.oXo.T >.S.<.;.o.o.L T W.@X",
"(.Q.j.4.0.|.F.7.5.&.~.6.~.8.2.4.2.4.- # g j = * l.0X0X0X0X0X0X0X0X0X0X0X0X0XwX>Xa.@ * 7 + * B 6.P.@X8.{.J.|.L.:.J.8...<.&.{ T @X",
"^.~.E.3.3.).g.0.~.+.6.9.<...,.2.w.<.%.* * = > h 3 & E l.:X>X*Xn.z.*X,X,XM.p.u @ 5 ~ :   . ^ 6.~.Z.>.4.0.3.~.g.%.0.H.=.3.8.h.7.9.",
"OXF.5.P. .0.7.7.3.*.o.3...^.,.~.,.^.L.A . . . = 0 m h 2 . t r.y.y.! t & 2 9 h j > O . - P 4.S.^.L.J.q.Y <.q.4.P.Q.o.J.3.+.W.0.&.",
"W.F.h.X.9.J.*.3.} 3.w.9.7.0.;.4.w.Q.Q.h.; e e   X 0 = > 9 7 > 7 t k s k s d = @     w h.o.L.9.~.7.>.6.=.o.O.F.S.Q.:.5.W.0.7.h.#.",
"H.F.&.T.7.7.F.F.F...F.^.9.E.3.}.J...0.o.(.7.- 9 r . . . O = : = : : = = O . . # 2 . K q.>.| ..=.+.+.S.~.Y Y Y ;.K.o.0.7.Q.&.7.%.",
"h.Z *.9..X{ *.9.D.F.~.X.5.Y 3._.,.R ..J.3.U 4 z.W . . r . O   3 4 . o X . . . e.z.t - ^.w.-.-.w.>.7.3.~.| O.| | P. .7.*.7.E.h.).",
"'.*.I.XX|.F.0.=.>.6.7.|.F.^.T 0.(.Y.X.6.0.@ m d.3 d 4 N.x.@   z.z.*   E 4 u n 8 s.y.4 H Y =.;.L.>.8.J.F.X.6.6.=.q.0.8.L.3.T *.#.",
"g.[ *.I `.P 0...%.8.Y <.G.{.4.o.F 8.4.&.y 9 t.t.@ n . e.N.k.. @ E 4 v =Xn 8 t.O Q t.h . T  X=.4.-.4.J.F.6.6.3.=.4.1.T <.9.$.K &.",
"*.{ @.:.3.F.7.;.9.4.@.o.F.8.0.8.@.J.3.< u @ 8 8 2 Q E 4 @ u u.r   3 N.y.3 8 r.2 9 9 @ v 2 / ;.J.{.R 0.+.;.{ '.J.L.P.9. . .{ P 9.",
"9.9.@Xo.o.Q.@X(...Q.=.<.%.0.H. .L._.L r.zXiXk.. 0 Q y.i.y.v     t.c.r & u t.m 6 . y.6XsX&Xw 4.!.OXj.J.$.>.o.X.;. .F.%.{ +XU.I X.",
"T Q.&.6.F.L 9...5.%.^.Y +.*.*.+.*.K.A z.hXhXgX. t ~ Q a.s.r . u 4 4 t t.t.m m 9 6 hXhXdX9X= ..0.(.j.<...|...o.3.6.^.`.9./.#.*.X.",
"&.&. .9.5.S 9.7.*.4.J.5.3.P.H.X.} P.Z n aXdX,X. 2 j m Q Q n . 5 h ~ m m m b h = . 0XdXpXm.e q.{.j... .g.9.G.X.F.X.&.'.{ H.[ ~.&.",
"W.h.(.*.I L U.o.0.F.0.^.;.F. .9.o.&.%.q l.wXp.5 h = . 2 8 0 @ @ 2 9 9 2 @ . 5 j 2 V.tX-X2 -.O.g.;.o.3.$.F.;.:.I (.@.F.W.I.&.9.E.",
"&.L 9.(.J I Q.4.).X.3.X.;.S.o.S.G.6.+.%.1 - = . # h m j h @ 4 r e.4 = h s j 5 @ . * 3 4 $.O.w.h.>.D ..h.:.@.{ +...6.I.*.[ '. .&.",
"F.[ /.L ~.5.3.F.7.3.X. .+.3.XX} ^.+.G. .K.*.A = u v 4 @ . . 4 i e.4 . . . @ . * @ U $.h.w.3./  .4.;.%.*.:.H.@.5.5.*.[ *.G.*.o.F.",
"~.*.3.X.3.~.}.8.<.3.5.;.6.6.3.$.9.X.3.5.7.7.A 2 v t.t.n n e.2 r 4 u e.t.E @ 6 @ . Z o.*.>.O.{ 9.&.:. .<.~.H.*.E.H.F.H.J C %.G.*.",
"0.U 5.9.*.&.<.R T q.>.J.^.K.*.~.X.+.I...).%.y = h h n h 6 n h W u n t.h t.8 . . * Z 4.7. .9.S.Q.7.~.F.q.(.9.*.{ } 5.F.9.*.%.G.} ",
"F.*.X.%.5.H.<.3.6.6.:.-.P.5.H.L.3.3.T  .<.o.e 2 8 . 2 2   8 3 u 2 6 9 4 h 4 @ t 2 w S.3.3.{ 3.F.{ L ~.L !.9.%.3.*.~.W.X.F.G.+.X.",
"9.P.{ o.5.F.I. .<.6.4.{ D @.6.+.$.9.S } ..X.y @ . X . O 9 . . * . O @ @ @ @ . . . w *.5.3.3. ._.I =.^.5.+.:.~.;.Q.L L.6. X6._.5.",
"~.G.0.9.T.`.*.*.9.9.3.!.oX.. .*.9.7.K 9.o.<.L.V ; 5 h j j 7 @ * 3 . = g = h 5 @ A J '.*.h.T.^.X.X.7. .5.5.K.F.9.9.X.(.0.S.+.F.F.",
"<.'.XX0.5.~._.K.9.6.J.J.6.U.X.} } J.F.7.&.o.^.F.2 @ # * = = . e G * = * = @ @ * F.S.+.3.^._.XX$XE.(.{.I. .+.0.5.{ P.^.3.I.F.F.[ ",
"F.S. .~.X.E.7.:.;.3.U.o.X.5.{ 6.:.F.F.F F E. .h.&.P T P / F J %.H.G Z ^ A ^ U Y 3. .^.;.Q.S.6...9.F.S.:.D.5.`.5.*.9.U.F.|.%.+.9.",
"(.`.6..X9.L.G.J.U.6.P.6.I.&.G.3.9.~.$.o.P F.*.g.<.5.P.9.oX6.q.3.(./.0..X6.G.E.J.~.:.Y.5.Q.6.~...P.} O.} I. .X.;.8.3.G.8..X6.U.*.",
"E.9.~.5.K %.%.S.X.F.6.9.*.H.F.%.[ X.D._.#.$.`.F.3.3.S 1.Q.OX!.F.E.9.U.6.J *.%.F. .9.S.3.!.3.!. .%.@.K.9.L.9.~.J.<.;.F &.Q.oX~.F.",
"0.9.0.4.=.6.S.F.*.3.6.^.9.j.I.{ F.^.P.+.7.L P.*.&.~.T j.7.!.o.q.9.9.0.7.<.6.S.S.*.I.>...q.6.7.5.Q.;.~.o.L 3.0.H.9.L.T E.0.!.O.L.",
"7.^.K 7.F.3._.~.4.+.3.{.T o. .5.^.).Q. ...9.%.h.0.OXU.9.7.L ^.@.8.^.L 3.0.9.|.~.9.;.X.Y D q.0..X{ 3.+.o.L.8.4.:.I.{.U.9.7.K ^.o."
};
