/* XPM */
static char *ddfc6be186d34652ed22d64314810c8bJj1cRXsWi0r64FhI[] = {
/* columns rows colors chars-per-pixel */
"32 32 11 1 ",
"  c None",
". c #3E2723",
"X c #4E342E",
"o c #5D4037",
"O c #595652",
"+ c #6D4C41",
"@ c #795548",
"# c #696A6A",
"$ c #FF6600",
"% c #FF9500",
"& c #FFC107",
/* pixels */
"                                ",
"                                ",
"                                ",
"                                ",
"                                ",
"              $                 ",
"              $$                ",
"             $%$$               ",
"             $%%%$              ",
"            $%%%%%$             ",
"            $%%&%%%$            ",
"           $%%&&&%%%$           ",
"          $%%%&&&&%%%$          ",
"          $%%&&&&&%%%%          ",
"          %%%&&&&&%%%%          ",
"           %%%&&&%%%%           ",
"           .@@@@@@@@.           ",
"           .@@@@@@@@.           ",
"            .++++++.            ",
"            .++++++.            ",
"            .++++++.            ",
"          OO########OO          ",
"          OO########OO          ",
"             .oooo.             ",
"             .oooo.             ",
"             .oooo.             ",
"              .XX.              ",
"              .XX.              ",
"              .XX.              ",
"               ..               ",
"                                ",
"                                "
};
