/* XPM */
static char *_ea132eff4d64cd39848c9294b413a92cg1RrOBMrIfgA2Tz[] = {
/* columns rows colors chars-per-pixel */
"32 32 11 1 ",
"  c None",
". c #3E2723",
"X c #4E342E",
"o c #5D4037",
"O c #595652",
"+ c #6D4C41",
"@ c #795548",
"# c #696A6A",
"$ c #FF6600",
"% c #FF9500",
"& c #FFC107",
/* pixels */
"                                ",
"                                ",
"                                ",
"                                ",
"                                ",
"                 $              ",
"                $$              ",
"               $%%$             ",
"              $%%%$             ",
"              $%%%%$            ",
"             $%%%%%%$           ",
"             $%%&&%%%$          ",
"            $%%&&&%%%$          ",
"           $%%&&&&&%%$          ",
"           %%%&&&&&%%$          ",
"           %%%%&&&%%%           ",
"           .@@@@@@@@.           ",
"           .@@@@@@@@.           ",
"            .++++++.            ",
"            .++++++.            ",
"            .++++++.            ",
"          OO########OO          ",
"          OO########OO          ",
"             .oooo.             ",
"             .oooo.             ",
"             .oooo.             ",
"              .XX.              ",
"              .XX.              ",
"              .XX.              ",
"               ..               ",
"                                ",
"                                "
};
